<?xml version="1.0" encoding="utf-8"?>
<!-- Generator: Adobe Illustrator 15.0.2, SVG Export Plug-In . SVG Version: 6.00 Build 0)  -->
<!DOCTYPE svg PUBLIC "-//W3C//DTD SVG 1.1//EN" "http://www.w3.org/Graphics/SVG/1.1/DTD/svg11.dtd">
<svg version="1.1" id="Calque_1" xmlns="http://www.w3.org/2000/svg" xmlns:xlink="http://www.w3.org/1999/xlink" x="0px" y="0px"
	 width="117px" height="88px" viewBox="0 0 117 88" enable-background="new 0 0 117 88" xml:space="preserve">
<g>
	<path fill="#CA9E67" d="M105.01,41.674h-1.58c0.062-0.247,0.108-0.465,0.139-0.651c0.03-0.186,0.077-0.341,0.14-0.465
		c0.124-0.496,0.218-0.898,0.28-1.21c0.061-0.309,0.124-0.588,0.187-0.836c0-0.125,0-0.234,0-0.327c0-0.092,0-0.2,0-0.325
		c0-1.053-0.452-1.705-1.349-1.954c-0.9-0.247-2.992-0.372-6.28-0.372H89.57c-0.745,2.481-1.476,4.744-2.188,6.791
		c-0.712,2.047-1.412,3.94-2.092,5.675c-1.056,2.544-2.125,4.868-3.209,6.976c-1.087,2.109-2.279,4.156-3.582,6.141
		c-0.436,0.684-0.9,1.348-1.396,1.998c-0.497,0.652-0.993,1.317-1.488,2.001C70.159,72.312,63.787,77.92,56.5,81.953
		C49.211,85.985,41.693,88,33.942,88c-9.923,0-18.047-2.9-24.372-8.698c-6.325-5.801-9.488-13.193-9.488-22.186
		c0-7.564,2.403-13.627,7.209-18.186c4.806-4.559,11.21-6.837,19.21-6.837c5.333,0,10.744,1.349,16.232,4.046
		c5.488,2.698,11.302,6.9,17.442,12.605c0.062,0.062,0.14,0.138,0.231,0.232c0.093,0.093,0.2,0.171,0.327,0.233
		c0.062,0.123,0.138,0.216,0.232,0.278c0.093,0.062,0.199,0.155,0.324,0.277c1.117,0.994,2.341,2.188,3.675,3.583
		c1.333,1.396,3.239,3.364,5.722,5.906c0.247-0.373,0.464-0.743,0.65-1.115s0.34-0.775,0.464-1.209
		c0.436-0.932,0.745-1.876,0.931-2.838c0.188-0.962,0.28-1.969,0.28-3.023c0-4.403-1.924-8.062-5.768-10.977
		c-3.846-2.914-8.9-4.526-15.163-4.838c0.125-0.186,0.217-0.356,0.278-0.51c0.062-0.155,0.155-0.327,0.281-0.512
		c0.246-0.496,0.464-1.008,0.651-1.535c0.186-0.527,0.372-1.131,0.557-1.814l32.185-0.094c0.125-0.372,0.233-0.712,0.327-1.023
		c0.094-0.309,0.17-0.559,0.232-0.744c0.31-1.177,0.636-2.279,0.976-3.303c0.341-1.022,0.668-1.967,0.978-2.837
		c1.116-3.287,2.309-5.954,3.582-8c1.27-2.047,2.928-3.968,4.977-5.768c0.744-0.681,1.549-1.349,2.419-2
		c0.867-0.65,1.798-1.316,2.789-1.999c2.295-1.612,4.294-2.821,6.002-3.629c1.704-0.805,3.331-1.27,4.883-1.396
		C113.444,0.032,113.678,0,113.894,0c0.218,0,0.45,0,0.699,0c0.311,0,0.65,0.016,1.024,0.047c0.37,0.032,0.803,0.109,1.302,0.232
		c0,0.187-0.017,0.358-0.049,0.512c-0.03,0.156-0.077,0.326-0.139,0.512c-0.248,1.178-0.573,2.511-0.975,4
		c-0.405,1.487-1.04,3.69-1.908,6.604h-1.583c0.248-0.992,0.421-1.721,0.515-2.185c0.091-0.465,0.169-0.853,0.23-1.163
		c0-0.124,0-0.248,0-0.374c0-0.124,0-0.247,0-0.372c0-0.867-0.295-1.566-0.885-2.093c-0.588-0.527-1.348-0.791-2.277-0.791
		c-0.062,0-0.139,0-0.233,0c-0.093,0-0.171,0-0.233,0c-2.729,0.125-5.317,1.085-7.767,2.884c-2.45,1.799-4.294,4.062-5.534,6.791
		c-0.372,0.807-0.808,1.954-1.302,3.442c-0.497,1.488-1.272,4.062-2.326,7.72l-0.559,1.955c-0.311,0.929-0.496,1.504-0.558,1.72
		c-0.062,0.217-0.094,0.358-0.094,0.418c-0.061,0.062-0.093,0.125-0.093,0.186l-0.186,0.744h17.396L105.01,41.674z M63.987,35.442
		c3.287,1.427,5.908,3.52,7.861,6.278c1.953,2.761,2.93,5.69,2.93,8.792c0,1.551-0.249,3.271-0.745,5.162
		c-0.495,1.892-1.178,3.83-2.044,5.813c-0.312,0.807-0.684,1.614-1.117,2.418c-0.437,0.807-0.899,1.613-1.396,2.42
		C60.855,56.22,52.5,48.451,44.407,43.024c-8.093-5.426-15.458-8.14-22.093-8.14c-5.83,0-10.621,1.846-14.373,5.535
		c-3.753,3.69-5.628,8.388-5.628,14.092c0,8.621,3.363,15.722,10.093,21.304c6.729,5.581,15.271,8.371,25.628,8.371
		c11.535,0,21.302-4.154,29.302-12.465c8.001-8.308,13.798-20.372,17.395-36.186L63.987,35.442z"/>
</g>
</svg>
