<?xml version="1.0" encoding="utf-8"?>
<!-- Generator: Adobe Illustrator 16.0.0, SVG Export Plug-In . SVG Version: 6.00 Build 0)  -->
<!DOCTYPE svg PUBLIC "-//W3C//DTD SVG 1.1//EN" "http://www.w3.org/Graphics/SVG/1.1/DTD/svg11.dtd">
<svg version="1.1" id="Calque_1" xmlns="http://www.w3.org/2000/svg" xmlns:xlink="http://www.w3.org/1999/xlink" x="0px" y="0px"
	 width="33px" height="1630.947px" viewBox="0 0 33 1630.947" enable-background="new 0 0 33 1630.947" xml:space="preserve">
<g>
	<title>96 Air Sock</title>
	<description>Created with Sketch (http://www.bohemiancoding.com/sketch)</description>
	<title>97 Air Sock</title>
	<description>Created with Sketch (http://www.bohemiancoding.com/sketch)</description>
	<title>86 Celsius</title>
	<description>Created with Sketch (http://www.bohemiancoding.com/sketch)</description>
	<title>47 Cloud Add</title>
	<description>Created with Sketch (http://www.bohemiancoding.com/sketch)</description>
	<title>50 Cloud Arrow Up</title>
	<description>Created with Sketch (http://www.bohemiancoding.com/sketch)</description>
	<title>26 Cloud Fog Moon</title>
	<description>Created with Sketch (http://www.bohemiancoding.com/sketch)</description>
	<g id="Cloud-Fog-Moon-Icons_new_Arranged_Names">
		<g id="Cloud-Fog-Moon-26_Cloud_Fog_Moon">
			<path id="Cloud-Fog-Moon-Rectangle_1_copy_6" fill="#383838" d="M12.002,4c2.143,0,4.112,0.75,5.657,2H6.345
				C7.89,4.75,9.859,4,12.002,4z M0.344,16h31.317c0.221,0.627,0.342,1.3,0.342,2h-32C0.002,17.3,0.123,16.627,0.344,16L0.344,16z
				 M31.198,21H0.805c-0.352-0.606-0.6-1.281-0.72-2h31.833C31.797,19.719,31.549,20.393,31.198,21L31.198,21z M26.002,24h-20
				c-1.776,0-3.373-0.772-4.472-2h28.943C29.374,23.228,27.777,24,26.002,24z M2.687,13h26.631c0.771,0.513,1.416,1.197,1.882,2
				H0.806C1.271,14.198,1.917,13.513,2.687,13L2.687,13z M3.514,10h22.677c0.554,0.575,1,1.253,1.312,2H3.057
				C3.134,11.308,3.289,10.638,3.514,10L3.514,10z M5.294,7H18.71c0.353,0.393,0.67,0.816,0.947,1.266
				C20.243,8.093,20.861,8,21.502,8c1.273,0,2.463,0.367,3.465,1H3.938C4.299,8.272,4.757,7.601,5.294,7L5.294,7z"/>
			<path id="Cloud-Fog-Moon-Oval_20_copy_5" fill="#383838" d="M27.979,5.761c-0.196,1.562-0.996,2.937-2.153,3.885
				C24.674,8.622,23.161,8,21.502,8c-0.641,0-1.26,0.093-1.846,0.266c-0.875-1.415-2.135-2.568-3.631-3.317
				c0.024-2.742,1.887-5.045,4.415-5.736C20.945-0.926,21.477-1,22.025-1c0.248,0,0.49,0.016,0.729,0.044
				c-0.461,0.707-0.729,1.55-0.729,2.457c0,2.484,2.017,4.5,4.5,4.5C27.034,6.001,27.523,5.916,27.979,5.761L27.979,5.761z"/>
		</g>
	</g>
	<title>25 Cloud Fog Sun</title>
	<description>Created with Sketch (http://www.bohemiancoding.com/sketch)</description>
	<g id="Cloud-Fog-Sun-Icons_new_Arranged_Names">
		<g id="Cloud-Fog-Sun-25_Cloud_Fog_Sun">
			<path id="Cloud-Fog-Sun-Rectangle_1_copy_5" fill="#383838" d="M12,39.09c2.143,0,4.112,0.75,5.657,2H6.343
				C7.888,39.84,9.857,39.09,12,39.09z M0.342,51.09h31.317c0.221,0.627,0.342,1.3,0.342,2H0C0,52.39,0.121,51.717,0.342,51.09
				L0.342,51.09z M31.195,56.09H0.803c-0.352-0.606-0.6-1.281-0.72-2h31.833C31.795,54.809,31.547,55.482,31.195,56.09L31.195,56.09
				z M26,59.09H6c-1.776,0-3.373-0.772-4.472-2h28.943C29.372,58.317,27.775,59.09,26,59.09z M2.685,48.09h26.631
				c0.771,0.513,1.416,1.197,1.882,2H0.804C1.269,49.288,1.915,48.603,2.685,48.09L2.685,48.09z M3.512,45.09h22.677
				c0.554,0.575,1,1.253,1.312,2H3.055C3.132,46.397,3.287,45.728,3.512,45.09L3.512,45.09z M5.292,42.09h13.416
				c0.353,0.393,0.67,0.816,0.946,1.266c0.587-0.173,1.205-0.266,1.847-0.266c1.272,0,2.463,0.367,3.465,1H3.936
				C4.297,43.362,4.755,42.69,5.292,42.09L5.292,42.09z"/>
			<path id="Cloud-Fog-Sun-Rectangle_1_copy_4" fill="#383838" d="M27,45.09c0,0.314-0.023,0.623-0.07,0.926
				c-1.164-1.763-3.16-2.926-5.43-2.926c-0.641,0-1.26,0.093-1.846,0.266c-0.676-1.093-1.58-2.029-2.647-2.744
				c1.062-0.946,2.459-1.521,3.993-1.521C24.314,39.09,27,41.776,27,45.09z M30.995,44.095c0.565,0,1.01,0.447,1.01,1
				c0,0.556-0.452,1-1.01,1h-1.979c-0.566,0-1.011-0.448-1.011-1c0-0.557,0.451-1,1.011-1H30.995z M20,35.1
				c0-0.566,0.447-1.01,1-1.01c0.557,0,1,0.452,1,1.01v1.981c0,0.565-0.449,1.009-1,1.009c-0.557,0-1-0.451-1-1.009V35.1z
				 M27.359,37.32c0.4-0.4,1.031-0.397,1.423-0.007c0.393,0.393,0.387,1.026-0.009,1.421l-1.399,1.4
				c-0.399,0.4-1.031,0.397-1.422,0.007c-0.394-0.394-0.388-1.026,0.008-1.421L27.359,37.32z"/>
		</g>
	</g>
	<title>24 Cloud Fog</title>
	<description>Created with Sketch (http://www.bohemiancoding.com/sketch)</description>
	<g id="Cloud-Fog-Icons_new_Arranged_Names">
		<g id="Cloud-Fog-24_Cloud_Fog">
			<path id="Cloud-Fog-Rectangle_1_copy_4" fill="#383838" d="M6.345,73.68c1.545-1.25,3.514-2,5.657-2s4.112,0.75,5.657,2H6.345z
				 M0.002,85.68c0-0.7,0.121-1.373,0.342-2H31.66c0.223,0.627,0.342,1.3,0.342,2H0.002z M31.918,86.68
				c-0.121,0.719-0.369,1.393-0.721,2H0.805c-0.352-0.606-0.6-1.281-0.72-2H31.918z M30.473,89.68c-1.1,1.228-2.695,2-4.471,2h-20
				c-1.776,0-3.373-0.772-4.472-2H30.473z M0.806,82.68c0.464-0.802,1.11-1.487,1.88-2h26.632c0.771,0.513,1.416,1.197,1.879,2
				H0.806z M3.056,79.68c0.077-0.692,0.232-1.362,0.458-2h22.677c0.554,0.575,1,1.253,1.312,2H3.056z M3.937,76.68
				c0.362-0.728,0.819-1.399,1.356-2H18.71c0.353,0.393,0.668,0.816,0.947,1.266c0.584-0.173,1.202-0.266,1.844-0.266
				c1.274,0,2.465,0.367,3.467,1H3.937z"/>
		</g>
	</g>
	<title>38 Cloud Lightning Moon</title>
	<description>Created with Sketch (http://www.bohemiancoding.com/sketch)</description>
	<g id="Cloud-Lightning-Moona-Icons_new_Arranged_Names">
		<g id="Cloud-Lightning-Moona-38_Cloud_Lightning_Moon">
			<path id="Cloud-Lightning-Moona-Oval_20_copy_3" fill="#383838" d="M25.975,116.77c-0.248-2.25-2.156-4-4.473-4
				c-1.057,0-2.029,0.365-2.797,0.976c-0.87-2.879-3.542-4.976-6.704-4.976c-3.866,0-7,3.135-7,7c0,0.377,0.03,0.745,0.086,1.104
				c-1.769,0.414-3.086,2.004-3.086,3.896c0,2.209,1.794,4,3.997,4h4.604l-0.8,2h-3.8c-3.313,0-6-2.686-6-6
				c0-2.217,1.208-4.157,3.002-5.196c0.105-4.88,4.093-8.804,8.998-8.804c1.437,0,2.795,0.337,4,0.937
				c0.029-2.737,1.891-5.034,4.415-5.725c0.504-0.138,1.037-0.212,1.586-0.212c0.246,0,0.49,0.016,0.729,0.044
				c-0.461,0.707-0.729,1.55-0.729,2.457c0,2.484,2.017,4.5,4.5,4.5c0.509,0,0.996-0.085,1.451-0.24
				c-0.197,1.556-0.988,2.926-2.142,3.875c0.785,0.694,1.398,1.578,1.775,2.577c2.543,0.694,4.414,3.022,4.414,5.787
				c0,3.308-2.686,6-6,6h-5l2-2h3.002c2.209,0,3.998-1.795,3.998-4c0-2.209-1.795-4-3.998-4H25.975z M23.967,111.254
				c0.332-0.188,0.635-0.421,0.898-0.691c-2.787-0.723-4.848-3.248-4.863-6.258c-1.195,0.692-2,1.984-2,3.465
				c0,0.573,0.119,1.117,0.336,1.609c0.49,0.485,0.924,1.025,1.291,1.612c0.018,0.013,0.035,0.024,0.053,0.037
				c0.576-0.168,1.188-0.259,1.82-0.259C22.375,110.77,23.208,110.942,23.967,111.254z M14.716,119.77h4.287l-2.45,5h3.45l-7,7
				l1.429-5h-2.429L14.716,119.77z"/>
		</g>
	</g>
	<title>12 Cloud Lightning Moon</title>
	<description>Created with Sketch (http://www.bohemiancoding.com/sketch)</description>
	<title>37 Cloud Lightning Sun</title>
	<description>Created with Sketch (http://www.bohemiancoding.com/sketch)</description>
	<g id="Cloud-Lightning-Suna-Icons_new_Arranged_Names">
		<g id="Cloud-Lightning-Suna-37_Cloud_Lightning_Sun">
			<path id="Cloud-Lightning-Suna-Rectangle_1_copy_3" fill="#383838" d="M28.004,147.864c0-0.557,0.451-1,1.01-1h1.98
				c0.566,0,1.01,0.447,1.01,1c0,0.556-0.453,1-1.01,1h-1.98C28.448,148.864,28.004,148.416,28.004,147.864z M24.855,146.792
				c-0.467-1.69-2.018-2.933-3.854-2.933c-0.922,0-1.769,0.312-2.442,0.834c0.409,0.438,0.778,0.918,1.098,1.432
				c0.586-0.173,1.205-0.266,1.846-0.266C22.729,145.859,23.875,146.2,24.855,146.792z M21,140.859c-0.557,0-1-0.451-1-1.009v-1.981
				c0-0.566,0.447-1.01,1-1.01c0.557,0,1,0.452,1,1.01v1.981C22,140.416,21.551,140.859,21,140.859z M25.952,142.911
				c-0.394-0.394-0.388-1.026,0.008-1.421l1.399-1.4c0.4-0.4,1.031-0.397,1.423-0.007c0.393,0.394,0.387,1.026-0.009,1.421
				l-1.399,1.4C26.973,143.304,26.342,143.301,25.952,142.911z M14.714,154.86H19l-2.45,5H20l-7,7l1.429-5H12L14.714,154.86z
				 M17.008,143.38c1.061-0.945,2.459-1.521,3.993-1.521c3.313,0,6,2.687,6,6c0,0.314-0.022,0.623-0.069,0.925
				c0.264,0.4,0.483,0.831,0.655,1.287c2.543,0.695,4.414,3.022,4.414,5.788c0,3.307-2.687,6-6,6h-5l2-2h3.002
				c2.209,0,3.998-1.795,3.998-4c0-2.209-1.795-4-3.998-4h-0.028c-0.248-2.25-2.156-4-4.474-4c-1.058,0-2.028,0.365-2.797,0.976
				c-0.87-2.879-3.542-4.976-6.704-4.976c-3.866,0-7,3.134-7,7c0,0.376,0.03,0.745,0.086,1.104C3.318,152.378,2,153.968,2,155.86
				c0,2.209,1.794,4,3.997,4H10.6l-0.8,2H6c-3.313,0-6-2.686-6-6c0-2.217,1.208-4.158,3.002-5.197
				c0.105-4.879,4.093-8.803,8.998-8.803C13.854,141.86,15.576,142.42,17.008,143.38z"/>
		</g>
	</g>
	<title>11 Cloud Lightning Sun</title>
	<description>Created with Sketch (http://www.bohemiancoding.com/sketch)</description>
	<title>36 Cloud Lightning</title>
	<description>Created with Sketch (http://www.bohemiancoding.com/sketch)</description>
	<g id="Cloud-Lightning-Icons_new_Arranged_Names">
		<g id="Cloud-Lightning-36_Cloud_Lightning">
			<path id="Cloud-Lightning-Rectangle_1_copy_3" fill="#383838" d="M25.975,184.449c-0.248-2.25-2.156-4-4.473-4
				c-1.057,0-2.029,0.365-2.797,0.976c-0.87-2.879-3.542-4.976-6.704-4.976c-3.866,0-7,3.135-7,7c0,0.377,0.03,0.745,0.086,1.104
				c-1.769,0.414-3.086,2.004-3.086,3.896c0,2.209,1.794,4,3.997,4h4.604l-0.8,2h-3.8c-3.313,0-6-2.686-6-6
				c0-2.217,1.208-4.157,3.002-5.196c0.105-4.88,4.093-8.804,8.998-8.804c3.233,0,6.068,1.706,7.655,4.266
				c0.586-0.173,1.204-0.266,1.846-0.266c2.785,0,5.16,1.752,6.086,4.213c2.543,0.694,4.414,3.022,4.414,5.787c0,3.308-2.687,6-6,6
				h-5l2-2h3.002c2.209,0,3.998-1.795,3.998-4c0-2.209-1.795-4-3.998-4H25.975z M14.716,187.449h4.287l-2.45,5h3.45l-7,7l1.429-5
				h-2.429L14.716,187.449z"/>
		</g>
	</g>
	<title>29 Cloud Moon</title>
	<description>Created with Sketch (http://www.bohemiancoding.com/sketch)</description>
	<g id="Cloud-Moona-Icons_new_Arranged_Names">
		<g id="Cloud-Moona-29_Cloud_Moon">
			<path id="Cloud-Moona-Oval_20_copy_2" fill="#383838" d="M25.975,224.539c-0.248-2.25-2.156-4-4.473-4
				c-1.057,0-2.029,0.365-2.797,0.976c-0.87-2.879-3.542-4.976-6.704-4.976c-3.866,0-7,3.135-7,7c0,0.377,0.03,0.745,0.086,1.104
				c-1.769,0.414-3.086,2.004-3.086,3.896c0,2.209,1.794,4,3.997,4h20.006c2.209,0,3.998-1.795,3.998-4c0-2.209-1.795-4-3.998-4
				H25.975z M23.967,219.023c0.332-0.188,0.635-0.421,0.898-0.691c-2.787-0.723-4.848-3.248-4.863-6.258
				c-1.195,0.692-2,1.984-2,3.465c0,0.573,0.119,1.117,0.336,1.609c0.49,0.485,0.924,1.025,1.291,1.612
				c0.018,0.013,0.035,0.024,0.053,0.037c0.576-0.168,1.188-0.259,1.82-0.259C22.375,218.539,23.208,218.712,23.967,219.023z
				 M0.002,228.539c0-2.217,1.208-4.157,3.002-5.196c0.105-4.88,4.093-8.804,8.998-8.804c1.437,0,2.795,0.337,4,0.937
				c0.029-2.737,1.891-5.034,4.415-5.725c0.504-0.138,1.037-0.212,1.586-0.212c0.246,0,0.49,0.016,0.729,0.044
				c-0.461,0.707-0.729,1.55-0.729,2.457c0,2.484,2.017,4.5,4.5,4.5c0.509,0,0.996-0.085,1.451-0.24
				c-0.197,1.556-0.988,2.926-2.142,3.875c0.785,0.694,1.398,1.578,1.775,2.577c2.543,0.694,4.414,3.022,4.414,5.787
				c0,3.308-2.686,6-6,6h-20C2.689,234.539,0.002,231.854,0.002,228.539z"/>
		</g>
	</g>
	<title>3 Cloud Moon</title>
	<description>Created with Sketch (http://www.bohemiancoding.com/sketch)</description>
	<title>32 Cloud Rain Moon</title>
	<description>Created with Sketch (http://www.bohemiancoding.com/sketch)</description>
	<g id="Cloud-Rain-Moona-Icons_new_Arranged_Names">
		<g id="Cloud-Rain-Moona-32_Cloud_Rain_Moon">
			<path id="Cloud-Rain-Moona-Oval_20_copy" fill="#383838" d="M25.975,256.129c-0.248-2.25-2.156-4-4.473-4
				c-1.057,0-2.029,0.365-2.797,0.976c-0.87-2.879-3.542-4.976-6.704-4.976c-3.866,0-7,3.135-7,7c0,0.377,0.03,0.745,0.086,1.104
				c-1.769,0.414-3.086,2.004-3.086,3.896c0,2.209,1.794,4,3.997,4h20.006c2.209,0,3.998-1.795,3.998-4c0-2.209-1.795-4-3.998-4
				H25.975z M23.967,250.613c0.332-0.188,0.635-0.421,0.898-0.691c-2.787-0.723-4.848-3.248-4.863-6.258
				c-1.195,0.692-2,1.984-2,3.465c0,0.573,0.119,1.117,0.336,1.609c0.49,0.485,0.924,1.025,1.291,1.612
				c0.018,0.013,0.035,0.024,0.053,0.037c0.576-0.168,1.188-0.259,1.82-0.259C22.375,250.129,23.208,250.302,23.967,250.613z
				 M0.002,260.129c0-2.217,1.208-4.157,3.002-5.196c0.105-4.88,4.093-8.804,8.998-8.804c1.437,0,2.795,0.337,4,0.937
				c0.029-2.737,1.891-5.034,4.415-5.725c0.504-0.138,1.037-0.212,1.586-0.212c0.246,0,0.49,0.016,0.729,0.044
				c-0.461,0.707-0.729,1.55-0.729,2.457c0,2.484,2.017,4.5,4.5,4.5c0.509,0,0.996-0.085,1.451-0.24
				c-0.197,1.556-0.988,2.926-2.142,3.875c0.785,0.694,1.398,1.578,1.775,2.577c2.543,0.694,4.414,3.022,4.414,5.787
				c0,3.308-2.686,6-6,6h-20C2.689,266.129,0.002,263.443,0.002,260.129z M8.002,271.129c-0.556,0-1-0.451-1-1.009v-1.981
				c0-0.566,0.448-1.01,1-1.01c0.556,0,1,0.452,1,1.01v1.981C9.002,270.687,8.554,271.129,8.002,271.129z M16.002,271.129
				c-0.556,0-1-0.451-1-1.009v-1.981c0-0.566,0.448-1.01,1-1.01c0.556,0,1,0.452,1,1.01v1.981
				C17.002,270.687,16.554,271.129,16.002,271.129z M24.002,271.129c-0.557,0-1-0.451-1-1.009v-1.981c0-0.566,0.447-1.01,1-1.01
				c0.557,0,1,0.452,1,1.01v1.981C25.002,270.687,24.553,271.129,24.002,271.129z M12.002,273.129c-0.556,0-1-0.451-1-1.009v-1.981
				c0-0.566,0.448-1.01,1-1.01c0.556,0,1,0.452,1,1.01v1.981C13.002,272.687,12.554,273.129,12.002,273.129z M20.002,273.129
				c-0.557,0-1-0.451-1-1.009v-1.981c0-0.566,0.447-1.01,1-1.01c0.557,0,1,0.452,1,1.01v1.981
				C21.002,272.687,20.553,273.129,20.002,273.129z"/>
		</g>
	</g>
	<title>6 Cloud Rain Moon</title>
	<description>Created with Sketch (http://www.bohemiancoding.com/sketch)</description>
	<title>31 Cloud Rain Sun</title>
	<description>Created with Sketch (http://www.bohemiancoding.com/sketch)</description>
	<g id="Cloud-Rain-Suna-Icons_new_Arranged_Names">
		<g id="Cloud-Rain-Suna-31_Cloud_Rain_Sun">
			<path id="Cloud-Rain-Suna-Rectangle_1_copy" fill="#383838" d="M25.973,291.219c-0.248-2.25-2.156-4-4.473-4
				c-1.057,0-2.029,0.365-2.797,0.976c-0.87-2.879-3.542-4.976-6.704-4.976c-3.866,0-7,3.135-7,7c0,0.377,0.03,0.745,0.086,1.104
				C3.318,291.737,2,293.327,2,295.219c0,2.209,1.794,4,3.997,4h20.006c2.209,0,3.998-1.795,3.998-4c0-2.209-1.795-4-3.998-4H25.973
				z M28.004,287.224c0-0.557,0.451-1,1.01-1h1.98c0.566,0,1.01,0.447,1.01,1c0,0.556-0.453,1-1.01,1h-1.98
				C28.448,288.224,28.004,287.775,28.004,287.224z M24.855,286.151c-0.467-1.69-2.018-2.933-3.854-2.933
				c-0.922,0-1.769,0.312-2.442,0.834c0.409,0.438,0.778,0.918,1.098,1.432c0.586-0.173,1.205-0.266,1.846-0.266
				C22.729,285.219,23.875,285.56,24.855,286.151z M21,280.219c-0.557,0-1-0.451-1-1.009v-1.981c0-0.566,0.447-1.01,1-1.01
				c0.557,0,1,0.452,1,1.01v1.981C22,279.775,21.551,280.219,21,280.219z M8,306.219c-0.556,0-1-0.451-1-1.009v-1.981
				c0-0.566,0.448-1.01,1-1.01c0.556,0,1,0.452,1,1.01v1.981C9,305.776,8.552,306.219,8,306.219z M25.952,282.271
				c-0.394-0.394-0.388-1.027,0.008-1.421l1.399-1.401c0.4-0.4,1.031-0.397,1.423-0.007c0.393,0.394,0.387,1.027-0.009,1.421
				l-1.399,1.401C26.973,282.664,26.342,282.661,25.952,282.271z M16,306.219c-0.556,0-1-0.451-1-1.009v-1.981
				c0-0.566,0.448-1.01,1-1.01c0.556,0,1,0.452,1,1.01v1.981C17,305.776,16.552,306.219,16,306.219z M17.008,282.74
				c1.061-0.946,2.459-1.521,3.993-1.521c3.313,0,6,2.688,6,6c0,0.313-0.022,0.623-0.069,0.925c0.264,0.4,0.483,0.831,0.655,1.287
				c2.543,0.695,4.414,3.022,4.414,5.788c0,3.307-2.687,6-6,6H6c-3.313,0-6-2.687-6-6c0-2.218,1.208-4.158,3.002-5.197
				c0.105-4.88,4.093-8.803,8.998-8.803C13.854,281.22,15.576,281.779,17.008,282.74z M24,306.219c-0.557,0-1-0.451-1-1.009v-1.981
				c0-0.566,0.447-1.01,1-1.01c0.557,0,1,0.452,1,1.01v1.981C25,305.776,24.551,306.219,24,306.219z M12,308.219
				c-0.556,0-1-0.451-1-1.009v-1.981c0-0.566,0.448-1.01,1-1.01c0.556,0,1,0.452,1,1.01v1.981C13,307.776,12.552,308.219,12,308.219
				z M20,308.219c-0.557,0-1-0.451-1-1.009v-1.981c0-0.566,0.447-1.01,1-1.01c0.557,0,1,0.452,1,1.01v1.981
				C21,307.776,20.551,308.219,20,308.219z"/>
		</g>
	</g>
	<title>5 Cloud Rain Sun</title>
	<description>Created with Sketch (http://www.bohemiancoding.com/sketch)</description>
	<title>4 Cloud Rain</title>
	<description>Created with Sketch (http://www.bohemiancoding.com/sketch)</description>
	<title>42 Cloud Raindrop Moon</title>
	<description>Created with Sketch (http://www.bohemiancoding.com/sketch)</description>
	<g id="Cloud-Raindrop-Moon-Icons_new_Arranged_Names">
		<g id="Cloud-Raindrop-Moon-42_Cloud_Raindrop_Moon">
			<path id="Cloud-Raindrop-Moon-Oval_20_copy_3" fill="#383838" d="M25.975,366.308c-0.248-2.25-2.156-4-4.473-4
				c-1.057,0-2.029,0.365-2.797,0.976c-0.87-2.879-3.542-4.976-6.704-4.976c-3.866,0-7,3.135-7,7c0,0.377,0.03,0.745,0.086,1.104
				c-1.769,0.414-3.086,2.004-3.086,3.896c0,2.209,1.794,4,3.997,4h6.44c-0.371,0.662-0.704,1.34-0.956,2h-5.48
				c-3.313,0-6-2.686-6-6c0-2.217,1.208-4.157,3.002-5.196c0.105-4.88,4.093-8.804,8.998-8.804c1.437,0,2.795,0.337,4,0.937
				c0.029-2.737,1.891-5.034,4.415-5.725c0.504-0.138,1.037-0.212,1.586-0.212c0.246,0,0.49,0.016,0.729,0.044
				c-0.461,0.707-0.729,1.55-0.729,2.456c0,2.485,2.017,4.5,4.5,4.5c0.509,0,0.996-0.084,1.451-0.239
				c-0.197,1.556-0.988,2.926-2.142,3.875c0.785,0.694,1.398,1.578,1.775,2.577c2.543,0.694,4.414,3.022,4.414,5.787
				c0,3.308-2.686,6-6,6h-5.48c-0.252-0.66-0.586-1.338-0.957-2h6.439c2.209,0,3.998-1.795,3.998-4c0-2.209-1.795-4-3.998-4H25.975z
				 M23.967,360.792c0.332-0.188,0.635-0.421,0.898-0.691c-2.787-0.723-4.848-3.248-4.863-6.258c-1.195,0.692-2,1.984-2,3.465
				c0,0.573,0.119,1.117,0.336,1.609c0.49,0.485,0.924,1.025,1.291,1.612c0.018,0.013,0.035,0.024,0.053,0.037
				c0.576-0.168,1.188-0.259,1.82-0.259C22.375,360.308,23.208,360.48,23.967,360.792z M13.002,376.782c0-1.685,3-5.474,3-5.474
				s3,3.789,3,5.474c0,1.396-1.343,2.526-3,2.526C14.345,379.308,13.002,378.178,13.002,376.782z"/>
		</g>
	</g>
	<title>41Cloud Raindrop Sun</title>
	<description>Created with Sketch (http://www.bohemiancoding.com/sketch)</description>
	<g id="Cloud-Raindrop-Sun-Icons_new_Arranged_Names">
		<g id="Cloud-Raindrop-Sun-41Cloud_Raindrop_Sun">
			<path id="Cloud-Raindrop-Sun-Rectangle_1" fill="#383838" d="M25.952,392.45c-0.394-0.394-0.388-1.026,0.006-1.421l1.401-1.4
				c0.398-0.4,1.029-0.397,1.42-0.007c0.394,0.394,0.388,1.026-0.006,1.421l-1.401,1.4C26.973,392.843,26.342,392.84,25.952,392.45z
				 M17.008,392.919c1.061-0.946,2.459-1.521,3.991-1.521c3.313,0,6,2.687,6,6c0,0.314-0.022,0.623-0.069,0.926
				c0.264,0.399,0.483,0.831,0.655,1.287c2.543,0.694,4.414,3.022,4.414,5.787c0,3.308-2.687,6-6,6h-5.478
				c-0.252-0.66-0.586-1.338-0.957-2h6.438c2.207,0,3.996-1.795,3.996-4c0-2.209-1.795-4-3.996-4h-0.03c-0.248-2.25-2.156-4-4.474-4
				c-1.058,0-2.028,0.365-2.797,0.976c-0.868-2.879-3.54-4.976-6.701-4.976c-3.866,0-7,3.135-7,7c0,0.377,0.029,0.745,0.086,1.104
				c-1.769,0.414-3.086,2.004-3.086,3.896c0,2.209,1.793,4,3.996,4h6.441c-0.371,0.662-0.704,1.34-0.956,2H6.001
				c-3.313,0-6-2.686-6-6c0-2.217,1.208-4.157,3.002-5.196c0.104-4.88,4.092-8.804,8.997-8.804
				C13.854,391.398,15.576,391.958,17.008,392.919z M28.002,397.403c0-0.557,0.451-1,1.01-1h1.98c0.566,0,1.01,0.447,1.01,1
				c0,0.556-0.453,1-1.01,1h-1.98C28.445,398.403,28.002,397.955,28.002,397.403z M24.855,396.331
				c-0.467-1.69-2.018-2.933-3.856-2.933c-0.92,0-1.769,0.312-2.442,0.834c0.411,0.438,0.78,0.918,1.1,1.432
				c0.586-0.173,1.205-0.266,1.844-0.266C22.727,395.398,23.875,395.739,24.855,396.331z M20.999,390.398
				c-0.556,0-0.998-0.451-0.998-1.009v-1.981c0-0.566,0.447-1.01,0.998-1.01c0.56,0,1,0.452,1,1.01v1.981
				C21.999,389.955,21.551,390.398,20.999,390.398z M13.002,411.873c0-1.686,3-5.475,3-5.475s3,3.789,3,5.475
				c0,1.395-1.343,2.525-3,2.525C14.345,414.398,13.002,413.267,13.002,411.873z"/>
		</g>
	</g>
	<title>40 Cloud Raindrop</title>
	<description>Created with Sketch (http://www.bohemiancoding.com/sketch)</description>
	<g id="Cloud-Raindrop-Icons_new_Arranged_Names">
		<g id="Cloud-Raindrop-40_Cloud_Raindrop">
			<path id="Cloud-Raindrop-Rectangle_1_copy" fill="#383838" d="M25.973,433.988c-0.248-2.25-2.156-4-4.473-4
				c-1.057,0-2.029,0.365-2.797,0.976c-0.868-2.879-3.54-4.976-6.701-4.976c-3.866,0-7,3.135-7,7c0,0.377,0.029,0.745,0.086,1.104
				c-1.769,0.414-3.086,2.004-3.086,3.896c0,2.209,1.793,4,3.996,4h6.441c-0.371,0.661-0.704,1.34-0.956,2h-5.48
				c-3.313,0-6-2.686-6-6c0-2.217,1.208-4.157,3.002-5.196c0.104-4.88,4.092-8.804,8.997-8.804c3.233,0,6.068,1.706,7.654,4.266
				c0.586-0.173,1.205-0.266,1.844-0.266c2.785,0,5.16,1.752,6.086,4.213c2.543,0.694,4.414,3.022,4.414,5.787c0,3.308-2.686,6-6,6
				h-5.477c-0.252-0.66-0.586-1.339-0.957-2h6.438c2.207,0,3.996-1.795,3.996-4c0-2.209-1.795-4-3.996-4H25.973z M13.004,444.462
				c0-1.686,3-5.475,3-5.475s3,3.789,3,5.475c0,1.395-1.343,2.525-3,2.525C14.347,446.987,13.004,445.857,13.004,444.462z"/>
		</g>
	</g>
	<title>53 Cloud Reload</title>
	<description>Created with Sketch (http://www.bohemiancoding.com/sketch)</description>
	<title>48 Cloud Remove</title>
	<description>Created with Sketch (http://www.bohemiancoding.com/sketch)</description>
	<title>35 Cloud Snow Moon</title>
	<description>Created with Sketch (http://www.bohemiancoding.com/sketch)</description>
	<g id="Cloud-Snow-Moona-Icons_new_Arranged_Names">
		<g id="Cloud-Snow-Moona-35_Cloud_Snow_Moon">
			<path id="Cloud-Snow-Moona-Oval_20_copy_3" fill="#383838" d="M25.975,469.578c-0.248-2.25-2.156-4-4.473-4
				c-1.057,0-2.029,0.365-2.797,0.976c-0.87-2.879-3.542-4.976-6.704-4.976c-3.866,0-7,3.135-7,7c0,0.377,0.03,0.745,0.086,1.104
				c-1.769,0.414-3.086,2.004-3.086,3.896c0,2.209,1.794,4,3.997,4h20.006c2.209,0,3.998-1.795,3.998-4c0-2.209-1.795-4-3.998-4
				H25.975z M23.967,464.062c0.332-0.188,0.635-0.422,0.898-0.691c-2.787-0.723-4.848-3.248-4.863-6.258
				c-1.195,0.692-2,1.984-2,3.465c0,0.573,0.119,1.117,0.336,1.609c0.49,0.484,0.924,1.024,1.291,1.611
				c0.018,0.014,0.035,0.024,0.053,0.037c0.576-0.168,1.188-0.259,1.82-0.259C22.375,463.578,23.208,463.75,23.967,464.062z
				 M0.002,473.578c0-2.217,1.208-4.157,3.002-5.196c0.105-4.88,4.093-8.804,8.998-8.804c1.437,0,2.795,0.337,4,0.937
				c0.029-2.737,1.891-5.034,4.415-5.725c0.504-0.138,1.037-0.212,1.586-0.212c0.246,0,0.49,0.016,0.729,0.044
				c-0.461,0.707-0.729,1.55-0.729,2.456c0,2.484,2.017,4.5,4.5,4.5c0.509,0,0.996-0.084,1.451-0.239
				c-0.197,1.556-0.988,2.926-2.142,3.875c0.785,0.694,1.398,1.578,1.775,2.577c2.543,0.694,4.414,3.021,4.414,5.787
				c0,3.308-2.686,6-6,6h-20C2.689,479.578,0.002,476.892,0.002,473.578z M15.002,482.578c0-0.556,0.448-1,1-1c0.556,0,1,0.448,1,1
				c0,0.557-0.448,1-1,1C15.446,483.578,15.002,483.13,15.002,482.578z M11.002,485.578c0-0.556,0.448-1,1-1c0.556,0,1,0.448,1,1
				c0,0.557-0.448,1-1,1C11.446,486.578,11.002,486.13,11.002,485.578z M7.002,482.578c0-0.556,0.448-1,1-1c0.556,0,1,0.448,1,1
				c0,0.557-0.448,1-1,1C7.446,483.578,7.002,483.13,7.002,482.578z M19.002,485.578c0-0.556,0.447-1,1-1c0.557,0,1,0.448,1,1
				c0,0.557-0.449,1-1,1C19.445,486.578,19.002,486.13,19.002,485.578z M23.002,482.578c0-0.556,0.447-1,1-1c0.557,0,1,0.448,1,1
				c0,0.557-0.449,1-1,1C23.445,483.578,23.002,483.13,23.002,482.578z"/>
		</g>
	</g>
	<title>9 Cloud Snow Moon</title>
	<description>Created with Sketch (http://www.bohemiancoding.com/sketch)</description>
	<title>34 Cloud Snow Sun</title>
	<description>Created with Sketch (http://www.bohemiancoding.com/sketch)</description>
	<g id="Cloud-Snow-Suna-Icons_new_Arranged_Names">
		<g id="Cloud-Snow-Suna-34_Cloud_Snow_Sun">
			<path id="Cloud-Snow-Suna-Rectangle_1_copy_3" fill="#383838" d="M25.973,504.667c-0.248-2.25-2.156-4-4.473-4
				c-1.057,0-2.029,0.365-2.797,0.976c-0.87-2.879-3.542-4.976-6.704-4.976c-3.866,0-7,3.135-7,7c0,0.377,0.03,0.745,0.086,1.104
				C3.318,505.186,2,506.776,2,508.667c0,2.209,1.794,4,3.997,4h20.006c2.209,0,3.998-1.795,3.998-4c0-2.209-1.795-4-3.998-4H25.973
				z M28.004,500.672c0-0.557,0.451-1,1.01-1h1.98c0.566,0,1.01,0.447,1.01,1c0,0.556-0.453,1-1.01,1h-1.98
				C28.448,501.672,28.004,501.224,28.004,500.672z M24.855,499.6c-0.467-1.689-2.018-2.933-3.854-2.933
				c-0.922,0-1.769,0.312-2.442,0.834c0.409,0.438,0.778,0.918,1.098,1.432c0.586-0.173,1.205-0.266,1.846-0.266
				C22.729,498.667,23.875,499.008,24.855,499.6z M21,493.667c-0.557,0-1-0.451-1-1.009v-1.981c0-0.565,0.447-1.01,1-1.01
				c0.557,0,1,0.452,1,1.01v1.981C22,493.224,21.551,493.667,21,493.667z M15,517.667c0-0.556,0.448-1,1-1c0.556,0,1,0.448,1,1
				c0,0.557-0.448,1-1,1C15.444,518.667,15,518.22,15,517.667z M25.952,495.719c-0.394-0.394-0.388-1.026,0.008-1.421l1.399-1.4
				c0.4-0.4,1.031-0.397,1.423-0.008c0.393,0.395,0.387,1.027-0.009,1.421l-1.399,1.401
				C26.973,496.113,26.342,496.11,25.952,495.719z M11,520.667c0-0.556,0.448-1,1-1c0.556,0,1,0.448,1,1c0,0.557-0.448,1-1,1
				C11.444,521.667,11,521.22,11,520.667z M17.008,496.189c1.061-0.946,2.459-1.521,3.993-1.521c3.313,0,6,2.688,6,6
				c0,0.313-0.022,0.623-0.069,0.925c0.264,0.4,0.483,0.831,0.655,1.287c2.543,0.695,4.414,3.022,4.414,5.788c0,3.307-2.687,6-6,6H6
				c-3.313,0-6-2.688-6-6c0-2.218,1.208-4.158,3.002-5.197c0.105-4.88,4.093-8.803,8.998-8.803
				C13.854,494.668,15.576,495.228,17.008,496.189z M7,517.667c0-0.556,0.448-1,1-1c0.556,0,1,0.448,1,1c0,0.557-0.448,1-1,1
				C7.444,518.667,7,518.22,7,517.667z M19,520.667c0-0.556,0.447-1,1-1c0.557,0,1,0.448,1,1c0,0.557-0.449,1-1,1
				C19.443,521.667,19,521.22,19,520.667z M23,517.667c0-0.556,0.447-1,1-1c0.557,0,1,0.448,1,1c0,0.557-0.449,1-1,1
				C23.443,518.667,23,518.22,23,517.667z"/>
		</g>
	</g>
	<title>8 Cloud Snow Sun</title>
	<description>Created with Sketch (http://www.bohemiancoding.com/sketch)</description>
	<title>33 Cloud Snow</title>
	<description>Created with Sketch (http://www.bohemiancoding.com/sketch)</description>
	<g id="Cloud-Snowa-Icons_new_Arranged_Names">
		<g id="Cloud-Snowa-33_Cloud_Snow">
			<path id="Cloud-Snowa-Rectangle_1_copy_2" fill="#383838" d="M25.975,537.257c-0.248-2.25-2.156-4-4.473-4
				c-1.057,0-2.029,0.365-2.797,0.977c-0.87-2.88-3.542-4.977-6.704-4.977c-3.866,0-7,3.135-7,7c0,0.377,0.03,0.745,0.086,1.104
				c-1.769,0.414-3.086,2.004-3.086,3.896c0,2.209,1.794,4,3.997,4h20.006c2.209,0,3.998-1.795,3.998-4c0-2.209-1.795-4-3.998-4
				H25.975z M0.002,541.257c0-2.217,1.208-4.157,3.002-5.196c0.105-4.88,4.093-8.804,8.998-8.804c3.233,0,6.068,1.706,7.655,4.267
				c0.586-0.174,1.204-0.267,1.846-0.267c2.785,0,5.16,1.752,6.086,4.213c2.543,0.694,4.414,3.022,4.414,5.787c0,3.309-2.687,6-6,6
				h-20C2.689,547.257,0.002,544.572,0.002,541.257z M15.002,550.257c0-0.556,0.448-1,1-1c0.556,0,1,0.448,1,1c0,0.558-0.448,1-1,1
				C15.446,551.257,15.002,550.81,15.002,550.257z M11.002,553.257c0-0.556,0.448-1,1-1c0.556,0,1,0.448,1,1c0,0.558-0.448,1-1,1
				C11.446,554.257,11.002,553.81,11.002,553.257z M7.002,550.257c0-0.556,0.448-1,1-1c0.556,0,1,0.448,1,1c0,0.558-0.448,1-1,1
				C7.446,551.257,7.002,550.81,7.002,550.257z M19.002,553.257c0-0.556,0.447-1,1-1c0.557,0,1,0.448,1,1c0,0.558-0.449,1-1,1
				C19.445,554.257,19.002,553.81,19.002,553.257z M23.002,550.257c0-0.556,0.447-1,1-1c0.557,0,1,0.448,1,1c0,0.558-0.449,1-1,1
				C23.445,551.257,23.002,550.81,23.002,550.257z"/>
		</g>
	</g>
	<title>7 Cloud Snow</title>
	<description>Created with Sketch (http://www.bohemiancoding.com/sketch)</description>
	<title>45 Cloud Snowflake Moon</title>
	<description>Created with Sketch (http://www.bohemiancoding.com/sketch)</description>
	<g id="Cloud-Snowflake-Moon-Icons_new_Arranged_Names">
		<g id="Cloud-Snowflake-Moon-45_Cloud_Snowflake_Moon">
			<path id="Cloud-Snowflake-Moon-Oval_20_copy_4" fill="#383838" d="M25.975,576.347c-0.248-2.25-2.156-4-4.473-4
				c-1.057,0-2.029,0.365-2.797,0.977c-0.87-2.879-3.542-4.977-6.704-4.977c-3.866,0-7,3.136-7,7c0,0.377,0.03,0.745,0.086,1.104
				c-1.769,0.414-3.086,2.004-3.086,3.896c0,2.209,1.794,4,3.997,4h3.27c-0.17,0.293-0.267,0.637-0.267,1
				c0,0.364,0.098,0.706,0.268,1H6.002c-3.313,0-6-2.686-6-6c0-2.217,1.208-4.156,3.002-5.195c0.105-4.88,4.093-8.805,8.998-8.805
				c1.437,0,2.795,0.337,4,0.938c0.029-2.737,1.891-5.034,4.415-5.726c0.504-0.138,1.037-0.212,1.586-0.212
				c0.246,0,0.49,0.017,0.729,0.044c-0.461,0.707-0.729,1.551-0.729,2.456c0,2.485,2.017,4.5,4.5,4.5
				c0.509,0,0.996-0.084,1.451-0.238c-0.197,1.556-0.988,2.926-2.142,3.875c0.785,0.693,1.398,1.577,1.775,2.577
				c2.543,0.693,4.414,3.021,4.414,5.786c0,3.309-2.686,6-6,6h-3.266c0.168-0.293,0.266-0.635,0.266-1c0-0.362-0.098-0.705-0.268-1
				h3.27c2.209,0,3.998-1.795,3.998-4c0-2.209-1.795-4-3.998-4H25.975L25.975,576.347z M23.967,570.831
				c0.332-0.188,0.635-0.421,0.898-0.691c-2.787-0.723-4.848-3.248-4.863-6.258c-1.195,0.692-2,1.984-2,3.465
				c0,0.573,0.119,1.117,0.336,1.609c0.49,0.485,0.924,1.025,1.291,1.612c0.018,0.013,0.035,0.023,0.053,0.037
				c0.576-0.168,1.188-0.26,1.82-0.26C22.375,570.347,23.208,570.52,23.967,570.831z M15.002,589.354v-1.592l-0.416,0.417
				c-0.385,0.384-1.022,0.389-1.412-0.003c-0.394-0.394-0.392-1.021-0.003-1.412l0.417-0.416h-1.591c-0.539,0-0.995-0.447-0.995-1
				c0-0.557,0.446-1,0.995-1h1.591l-0.417-0.416c-0.384-0.386-0.388-1.021,0.003-1.412c0.393-0.395,1.022-0.393,1.412-0.003
				l0.416,0.417v-1.591c0-0.539,0.448-0.995,1-0.995c0.556,0,1,0.445,1,0.995v1.591l0.416-0.417
				c0.385-0.384,1.021-0.389,1.413,0.003c0.396,0.394,0.394,1.021,0.002,1.412l-0.416,0.416h1.59c0.539,0,0.996,0.447,0.996,1
				c0,0.557-0.444,1-0.996,1h-1.59l0.416,0.416c0.385,0.386,0.39,1.021-0.002,1.412c-0.394,0.395-1.022,0.393-1.413,0.003
				l-0.416-0.417v1.592c0,0.538-0.448,0.994-1,0.994C15.446,590.348,15.002,589.901,15.002,589.354z M16.002,586.348
				c0.552,0,1-0.443,1-1c0-0.553-0.444-1-1-1c-0.552,0-1,0.443-1,1C15.002,585.899,15.446,586.348,16.002,586.348z"/>
		</g>
	</g>
	<title>44 Cloud Snowflake Sun</title>
	<description>Created with Sketch (http://www.bohemiancoding.com/sketch)</description>
	<g id="Cloud-Snowflake-Sun-Icons_new_Arranged_Names">
		<g id="Cloud-Snowflake-Sun-44_Cloud_Snowflake_Sun">
			<path id="Cloud-Snowflake-Sun-Rectangle_1_copy_3" fill="#383838" d="M28.004,607.441c0-0.558,0.451-1,1.01-1h1.98
				c0.566,0,1.01,0.446,1.01,1c0,0.556-0.453,1-1.01,1h-1.98C28.448,608.441,28.004,607.993,28.004,607.441z M24.855,606.369
				c-0.467-1.69-2.018-2.934-3.854-2.934c-0.922,0-1.769,0.312-2.442,0.834c0.409,0.438,0.778,0.919,1.098,1.433
				c0.586-0.173,1.205-0.267,1.846-0.267C22.729,605.438,23.875,605.777,24.855,606.369z M21,600.438c-0.557,0-1-0.451-1-1.01v-1.98
				c0-0.566,0.447-1.01,1-1.01c0.557,0,1,0.451,1,1.01v1.98C22,599.993,21.551,600.438,21,600.438z M25.952,602.488
				c-0.394-0.395-0.388-1.026,0.008-1.421l1.399-1.4c0.4-0.4,1.031-0.397,1.423-0.007c0.393,0.394,0.387,1.025-0.009,1.421
				l-1.399,1.399C26.973,602.882,26.342,602.879,25.952,602.488z M15,624.442v-1.592l-0.416,0.417
				c-0.385,0.385-1.022,0.389-1.412-0.003c-0.394-0.394-0.392-1.021-0.003-1.411l0.417-0.416h-1.591c-0.539,0-0.995-0.448-0.995-1
				c0-0.557,0.446-1,0.995-1h1.591l-0.417-0.416c-0.384-0.386-0.388-1.022,0.003-1.412c0.393-0.395,1.022-0.393,1.412-0.003
				L15,618.023v-1.592c0-0.539,0.448-0.994,1-0.994c0.556,0,1,0.445,1,0.994v1.592l0.416-0.417c0.385-0.385,1.021-0.389,1.413,0.003
				c0.396,0.394,0.394,1.021,0.002,1.412l-0.416,0.416h1.59c0.539,0,0.996,0.447,0.996,1c0,0.556-0.444,1-0.996,1h-1.59l0.416,0.416
				c0.385,0.385,0.39,1.021-0.002,1.411c-0.394,0.395-1.022,0.393-1.413,0.003L17,622.852v1.592c0,0.539-0.448,0.994-1,0.994
				C15.444,625.438,15,624.991,15,624.442z M17.008,602.958c1.061-0.945,2.459-1.521,3.993-1.521c3.313,0,6,2.687,6,6
				c0,0.313-0.022,0.622-0.069,0.925c0.264,0.399,0.483,0.831,0.655,1.287c2.543,0.694,4.414,3.022,4.414,5.788c0,3.308-2.687,6-6,6
				h-3.267c0.168-0.294,0.267-0.636,0.267-1s-0.099-0.706-0.269-1h3.271c2.209,0,3.998-1.796,3.998-4c0-2.209-1.795-4-3.998-4
				h-0.028c-0.248-2.25-2.156-4-4.474-4c-1.058,0-2.028,0.364-2.797,0.976c-0.87-2.879-3.542-4.976-6.704-4.976
				c-3.866,0-7,3.134-7,7c0,0.375,0.03,0.744,0.086,1.104C3.318,611.956,2,613.546,2,615.438c0,2.209,1.794,4,3.997,4h3.27
				c-0.17,0.294-0.267,0.636-0.267,1s0.098,0.706,0.268,1H6c-3.313,0-6-2.686-6-6c0-2.217,1.208-4.157,3.002-5.196
				c0.105-4.879,4.093-8.804,8.998-8.804C13.854,601.438,15.576,601.998,17.008,602.958z M16,621.438c0.552,0,1-0.443,1-1
				c0-0.552-0.444-1-1-1c-0.552,0-1,0.444-1,1C15,620.989,15.444,621.438,16,621.438z"/>
		</g>
	</g>
	<title>43 Cloud Snowflake</title>
	<description>Created with Sketch (http://www.bohemiancoding.com/sketch)</description>
	<g id="Cloud-Snowflake-Icons_new_Arranged_Names">
		<g id="Cloud-Snowflake-43_Cloud_Snowflake">
			<path id="Cloud-Snowflake-Rectangle_1_copy_3" fill="#383838" d="M25.975,644.026c-0.248-2.25-2.156-4-4.473-4
				c-1.057,0-2.029,0.364-2.797,0.976c-0.87-2.879-3.542-4.976-6.704-4.976c-3.866,0-7,3.135-7,7c0,0.377,0.03,0.745,0.086,1.104
				c-1.769,0.414-3.086,2.004-3.086,3.896c0,2.209,1.794,4,3.997,4h3.27c-0.17,0.293-0.267,0.636-0.267,1
				c0,0.363,0.098,0.707,0.268,1H6.002c-3.313,0-6-2.687-6-6c0-2.218,1.208-4.157,3.002-5.196c0.105-4.88,4.093-8.804,8.998-8.804
				c3.233,0,6.068,1.706,7.655,4.266c0.586-0.173,1.204-0.266,1.846-0.266c2.785,0,5.16,1.752,6.086,4.213
				c2.543,0.693,4.414,3.021,4.414,5.787c0,3.308-2.687,6-6,6h-3.267c0.168-0.293,0.267-0.636,0.267-1c0-0.363-0.099-0.705-0.269-1
				h3.271c2.209,0,3.998-1.795,3.998-4c0-2.209-1.795-4-3.998-4H25.975z M15.002,657.032v-1.592l-0.416,0.418
				c-0.385,0.384-1.022,0.388-1.412-0.005c-0.394-0.393-0.392-1.021-0.003-1.411l0.417-0.416h-1.591c-0.539,0-0.995-0.447-0.995-1
				c0-0.557,0.446-1,0.995-1h1.591l-0.417-0.416c-0.384-0.386-0.388-1.021,0.003-1.411c0.393-0.396,1.022-0.394,1.412-0.003
				l0.416,0.416v-1.591c0-0.538,0.448-0.995,1-0.995c0.556,0,1,0.445,1,0.995v1.591l0.416-0.416c0.385-0.386,1.021-0.39,1.413,0.003
				c0.396,0.393,0.394,1.021,0.002,1.411l-0.416,0.416h1.59c0.539,0,0.996,0.447,0.996,1c0,0.557-0.444,1-0.996,1h-1.59l0.416,0.416
				c0.385,0.386,0.39,1.021-0.002,1.411c-0.394,0.396-1.022,0.394-1.413,0.005l-0.416-0.418v1.592c0,0.539-0.448,0.994-1,0.994
				C15.446,658.026,15.002,657.581,15.002,657.032z M16.002,654.026c0.552,0,1-0.443,1-1c0-0.553-0.444-1-1-1c-0.552,0-1,0.443-1,1
				C15.002,653.579,15.446,654.026,16.002,654.026z"/>
		</g>
	</g>
	<title>28 Cloud Sun</title>
	<description>Created with Sketch (http://www.bohemiancoding.com/sketch)</description>
	<g id="Cloud-Sun-Icons_new_Arranged_Names">
		<g id="Cloud-Sun-28_Cloud_Sun">
			<path id="Cloud-Sun-Rectangle_1_copy_2" fill="#383838" d="M21,672.616c-0.557,0-1-0.451-1-1.009v-1.981
				c0-0.565,0.447-1.01,1-1.01c0.557,0,1,0.452,1,1.01v1.981C22,672.173,21.551,672.616,21,672.616z M25.952,674.668
				c-0.394-0.394-0.388-1.026,0.008-1.421l1.399-1.4c0.4-0.399,1.031-0.396,1.423-0.007c0.393,0.395,0.387,1.026-0.009,1.421
				l-1.399,1.4C26.973,675.062,26.342,675.059,25.952,674.668z M17.008,675.138c1.061-0.945,2.459-1.521,3.993-1.521
				c3.313,0,6,2.687,6,6c0,0.313-0.022,0.623-0.069,0.926c0.264,0.399,0.483,0.831,0.655,1.287c2.543,0.694,4.414,3.021,4.414,5.787
				c0,3.308-2.687,6-6,6H6c-3.313,0-6-2.687-6-6c0-2.217,1.208-4.157,3.002-5.196c0.105-4.88,4.093-8.804,8.998-8.804
				C13.854,673.616,15.576,674.177,17.008,675.138z M25.973,683.616c-0.248-2.25-2.156-4-4.473-4c-1.057,0-2.029,0.365-2.797,0.976
				c-0.87-2.879-3.542-4.976-6.704-4.976c-3.866,0-7,3.135-7,7c0,0.377,0.03,0.745,0.086,1.104C3.318,684.135,2,685.725,2,687.616
				c0,2.209,1.794,4,3.997,4h20.006c2.209,0,3.998-1.795,3.998-4c0-2.209-1.795-4-3.998-4H25.973z M28.004,679.621
				c0-0.557,0.451-1,1.01-1h1.98c0.566,0,1.01,0.447,1.01,1c0,0.556-0.453,1-1.01,1h-1.98
				C28.448,680.621,28.004,680.173,28.004,679.621z M24.855,678.549c-0.467-1.689-2.018-2.933-3.854-2.933
				c-0.922,0-1.769,0.312-2.442,0.834c0.409,0.438,0.778,0.918,1.098,1.432c0.586-0.173,1.205-0.266,1.846-0.266
				C22.729,677.616,23.875,677.957,24.855,678.549z"/>
		</g>
	</g>
	<title>52 Cloud Sync</title>
	<description>Created with Sketch (http://www.bohemiancoding.com/sketch)</description>
	<title>49 Cloud Warning</title>
	<description>Created with Sketch (http://www.bohemiancoding.com/sketch)</description>
	<title>23 Cloud Warning</title>
	<description>Created with Sketch (http://www.bohemiancoding.com/sketch)</description>
	<title>39 Cloud Wind</title>
	<description>Created with Sketch (http://www.bohemiancoding.com/sketch)</description>
	<g id="Cloud-Winda-Icons_new_Arranged_Names">
		<g id="Cloud-Winda-39_Cloud_Wind">
			<path id="Cloud-Winda-Rectangle_1_copy_2" fill="#383838" d="M25.975,710.206c-0.248-2.25-2.156-4-4.473-4
				c-1.057,0-2.029,0.365-2.797,0.976c-0.87-2.879-3.542-4.976-6.704-4.976c-3.866,0-7,3.135-7,7c0,0.376,0.03,0.745,0.086,1.104
				c-1.769,0.414-3.086,2.005-3.086,3.896c0,2.209,1.794,4,3.997,4h20.006c2.209,0,3.998-1.795,3.998-4c0-2.209-1.795-4-3.998-4
				H25.975z M0.002,714.206c0-2.217,1.208-4.158,3.002-5.196c0.105-4.88,4.093-8.804,8.998-8.804c3.233,0,6.068,1.706,7.655,4.266
				c0.586-0.173,1.204-0.266,1.846-0.266c2.785,0,5.16,1.751,6.086,4.213c2.543,0.695,4.414,3.022,4.414,5.787c0,3.308-2.687,6-6,6
				h-20C2.689,720.206,0.002,717.521,0.002,714.206z M2.002,727.206c0-0.556,0.445-1,0.993-1h9.007h1.001
				c0.552,0,0.999-0.443,0.999-1c0-0.552-0.447-1-0.999-1h-1.001h-0.991c-0.566,0-1.009-0.447-1.009-1c0-0.556,0.452-1,1.009-1
				h0.991h0.991h0.018c1.648,0,2.991,1.344,2.991,3c0,0.351-0.06,0.688-0.171,1h2.171h1.006c1.65,0,2.994,1.344,2.994,3
				c0,1.653-1.34,3-2.992,3h-0.018h-0.99H17.01c-0.566,0-1.009-0.447-1.009-1c0-0.556,0.452-1,1.009-1h0.992h0.99
				c0.562,0,1.01-0.443,1.01-1c0-0.552-0.447-1-1-1h-1H13.01h-1.009H2.995C2.447,728.206,2.002,727.759,2.002,727.206z
				 M18.002,723.206c0-0.556,0.447-1,0.998-1h7.002h1.008c1.648,0,2.992,1.344,2.992,3c0,1.653-1.34,3-2.992,3h-0.018h-0.99H25.01
				c-0.564,0-1.008-0.447-1.008-1c0-0.556,0.451-1,1.008-1h0.992h0.99c0.562,0,1.01-0.443,1.01-1c0-0.552-0.447-1-1-1h-0.998H19
				C18.448,724.206,18.002,723.759,18.002,723.206z"/>
		</g>
	</g>
	<title>13 Cloud Wind</title>
	<description>Created with Sketch (http://www.bohemiancoding.com/sketch)</description>
	<title>27 Cloud</title>
	<description>Created with Sketch (http://www.bohemiancoding.com/sketch)</description>
	<g id="Clouda-Icons_new_Arranged_Names">
		<g id="Clouda-27_Cloud">
			<path id="Clouda-Rectangle_1_copy_2" fill="#383838" d="M0.001,755.296c0-2.217,1.208-4.157,3.002-5.196
				c0.105-4.88,4.093-8.804,8.998-8.804c3.233,0,6.069,1.706,7.655,4.267c0.586-0.174,1.205-0.267,1.846-0.267
				c2.785,0,5.16,1.752,6.086,4.213c2.543,0.694,4.414,3.022,4.414,5.787c0,3.308-2.686,6-6,6H6.001
				C2.688,761.296,0.001,758.61,0.001,755.296z M25.975,751.296c-0.248-2.25-2.156-4-4.473-4c-1.057,0-2.029,0.365-2.797,0.977
				c-0.87-2.88-3.542-4.977-6.704-4.977c-3.866,0-7,3.135-7,7c0,0.377,0.03,0.745,0.086,1.104c-1.769,0.414-3.086,2.004-3.086,3.896
				c0,2.209,1.794,4,3.997,4h20.006c2.209,0,3.998-1.795,3.998-4c0-2.209-1.795-4-3.998-4H25.975z"/>
		</g>
	</g>
	<title>1 Cloud</title>
	<description>Created with Sketch (http://www.bohemiancoding.com/sketch)</description>
	<title>46 Clouds</title>
	<description>Created with Sketch (http://www.bohemiancoding.com/sketch)</description>
	<g id="Clouds-Icons_new_Arranged_Names">
		<g id="Clouds-46_Clouds">
			<path id="Clouds-Rectangle_1_copy_2" fill="#383838" d="M25.975,788.476c-0.248-2.25-2.156-4-4.473-4
				c-1.057,0-2.029,0.365-2.797,0.977c-0.87-2.879-3.542-4.977-6.704-4.977c-3.866,0-7,3.136-7,7c0,0.378,0.03,0.745,0.086,1.104
				c-1.769,0.414-3.086,2.004-3.086,3.896c0,1.347,0.665,2.535,1.682,3.262c-0.5,0.443-0.911,0.986-1.202,1.6
				c-1.503-1.091-2.48-2.86-2.48-4.86c0-2.217,1.208-4.156,3.002-5.195c0.105-4.88,4.093-8.805,8.998-8.805
				c3.233,0,6.069,1.706,7.655,4.267c0.586-0.173,1.205-0.267,1.846-0.267c2.785,0,5.16,1.752,6.086,4.214
				c2.543,0.693,4.414,3.021,4.414,5.786c0,3.309-2.686,6-6,6h-4.1c-0.15-0.737-0.463-1.418-0.9-2h5.002
				c2.209,0,3.998-1.795,3.998-4c0-2.209-1.795-4-3.998-4L25.975,788.476L25.975,788.476z M4.001,799.476
				c0-1.306,0.84-2.42,2.012-2.829c0.169-2.331,2.114-4.171,4.488-4.171c1.64,0,3.076,0.88,3.862,2.189
				c0.357-0.122,0.74-0.189,1.138-0.189c1.649,0,3.036,1.145,3.403,2.682c0.672,0.55,1.098,1.385,1.098,2.318
				c0,1.653-1.348,3-3.01,3H7.011C5.338,802.476,4.001,801.133,4.001,799.476z M21.502,774.476c1.641,0,3.076,0.878,3.861,2.189
				c0.357-0.122,0.74-0.189,1.139-0.189c1.65,0,3.035,1.145,3.402,2.682c0.672,0.55,1.098,1.385,1.098,2.318
				c0,1.425-0.998,2.619-2.336,2.926c-1.51-2.36-4.154-3.926-7.164-3.926c-0.328,0-0.65,0.021-0.969,0.056
				c-0.924-1.132-2.068-2.076-3.366-2.77C17.697,775.866,19.438,774.476,21.502,774.476z"/>
		</g>
	</g>
	<title>93 Compass East</title>
	<description>Created with Sketch (http://www.bohemiancoding.com/sketch)</description>
	<g id="Compass-East-Icons_new_Arranged_Names">
		<g id="Compass-East-93_Compass_East">
			<path id="Compass-East-Oval_278_copy_2" fill="#383838" d="M16.001,837.565c-7.732,0-14-6.269-14-14s6.268-14,14-14
				c7.733,0,14.001,6.269,14.001,14C30.002,831.298,23.734,837.565,16.001,837.565z M27.002,823.565c0,0-8.791,4-11.001,4
				s-4-1.791-4-4s1.79-4,4-4S27.002,823.565,27.002,823.565z M16.001,835.565c6.628,0,12.001-5.373,12.001-12
				c0-6.628-5.373-12-12.001-12c-6.627,0-12,5.372-12,12C4.001,830.192,9.374,835.565,16.001,835.565z M16.001,825.565
				c1.104,0,2.001-0.896,2.001-2s-0.896-2-2.001-2c-1.105,0-2,0.896-2,2C14.001,824.671,14.896,825.565,16.001,825.565z"/>
		</g>
	</g>
	<title>92 Compass Nord</title>
	<description>Created with Sketch (http://www.bohemiancoding.com/sketch)</description>
	<g id="Compass-Nord-Icons_new_Arranged_Names">
		<g id="Compass-Nord-92_Compass_Nord">
			<path id="Compass-Nord-Oval_278" fill="#383838" d="M16.001,872.655c-7.732,0-14-6.269-14-14s6.268-14,14-14
				c7.733,0,14.001,6.269,14.001,14C30.002,866.388,23.734,872.655,16.001,872.655z M16.001,847.655c0,0,4.001,8.791,4.001,11
				c0,2.211-1.791,4-4.001,4c-2.209,0-4-1.789-4-4C12.001,856.446,16.001,847.655,16.001,847.655z M16.001,870.655
				c6.628,0,12.001-5.373,12.001-12s-5.373-12-12.001-12c-6.627,0-12,5.373-12,12S9.374,870.655,16.001,870.655z M16.001,860.655
				c1.104,0,2.001-0.896,2.001-2s-0.896-2-2.001-2c-1.105,0-2,0.896-2,2C14.001,859.761,14.896,860.655,16.001,860.655z"/>
		</g>
	</g>
	<title>94 Compass South</title>
	<description>Created with Sketch (http://www.bohemiancoding.com/sketch)</description>
	<g id="Compass-South-Icons_new_Arranged_Names">
		<g id="Compass-South-94_Compass_South">
			<path id="Compass-South-Oval_278_copy" fill="#383838" d="M16.001,907.745c-7.732,0-14-6.269-14-14s6.268-14,14-14
				c7.733,0,14.001,6.269,14.001,14C30.002,901.479,23.734,907.745,16.001,907.745z M16.001,904.745c0,0-4-8.789-4-11
				c0-2.209,1.791-4,4-4c2.21,0,4.001,1.791,4.001,4C20.002,895.956,16.001,904.745,16.001,904.745z M16.001,905.745
				c6.628,0,12.001-5.373,12.001-12s-5.373-12-12.001-12c-6.627,0-12,5.373-12,12S9.374,905.745,16.001,905.745z M16.001,895.745
				c1.104,0,2.001-0.896,2.001-2s-0.896-2-2.001-2c-1.105,0-2,0.896-2,2C14.001,894.851,14.896,895.745,16.001,895.745z"/>
		</g>
	</g>
	<title>95 Compass West</title>
	<description>Created with Sketch (http://www.bohemiancoding.com/sketch)</description>
	<g id="Compass-West-Icons_new_Arranged_Names">
		<g id="Compass-West-95_Compass_West">
			<path id="Compass-West-Oval_278_copy_3" fill="#383838" d="M16.001,942.835c-7.732,0-14-6.268-14-14c0-7.731,6.268-14,14-14
				c7.733,0,14.001,6.269,14.001,14C30.002,936.567,23.734,942.835,16.001,942.835z M5.001,928.835c0,0,8.79-4,11-4
				s4.001,1.791,4.001,4s-1.791,4-4.001,4S5.001,928.835,5.001,928.835z M16.001,940.835c6.628,0,12.001-5.373,12.001-12
				s-5.373-12-12.001-12c-6.627,0-12,5.373-12,12S9.374,940.835,16.001,940.835z M16.001,930.835c1.104,0,2.001-0.895,2.001-2
				c0-1.104-0.896-2-2.001-2c-1.105,0-2,0.896-2,2C14.001,929.94,14.896,930.835,16.001,930.835z"/>
		</g>
	</g>
	<title>90 Compass</title>
	<description>Created with Sketch (http://www.bohemiancoding.com/sketch)</description>
	<g id="Compass-Icons_new_Arranged_Names">
		<g id="Compass-90_Compass">
			<path id="Compass-Oval_278" fill="#383838" d="M16.001,975.925c6.628,0,12.001-5.373,12.001-12s-5.373-12-12.001-12
				c-6.627,0-12,5.373-12,12S9.374,975.925,16.001,975.925z M16.001,977.925c-7.732,0-14-6.268-14-14c0-7.73,6.268-14,14-14
				c7.733,0,14.001,6.27,14.001,14C30.002,971.657,23.734,977.925,16.001,977.925z M8.223,971.703c0,0,3.182-8.839,4.95-10.605
				c1.767-1.769,10.606-4.949,10.606-4.949s-3.182,8.839-4.949,10.604C17.062,968.521,8.224,971.703,8.223,971.703L8.223,971.703z
				 M17.416,965.339l-2.828-2.827c-0.707-0.707-3.536,6.363-3.536,6.363S18.124,966.046,17.416,965.339z"/>
		</g>
	</g>
	<title>91 Compass</title>
	<description>Created with Sketch (http://www.bohemiancoding.com/sketch)</description>
	<g id="Compassa-Icons_new_Arranged_Names">
		<g id="Compassa-91_Compass">
			<path id="Compassa-Oval_278" fill="#383838" d="M16,1012.722c6.627,0,12-5.373,12-12s-5.373-12-12-12s-12,5.373-12,12
				S9.373,1012.722,16,1012.722z M16,1014.722c-7.732,0-14-6.268-14-14c0-7.73,6.268-14,14-14c7.732,0,14,6.27,14,14
				C30,1008.454,23.732,1014.722,16,1014.722z M18.829,1003.55c-1.769,1.77-10.606,4.95-10.606,4.95s3.182-8.839,4.95-10.605
				c1.767-1.769,10.606-4.949,10.606-4.949S20.596,1001.783,18.829,1003.55L18.829,1003.55z"/>
		</g>
	</g>
	<title>89 Compass</title>
	<description>Created with Sketch (http://www.bohemiancoding.com/sketch)</description>
	<g id="Compassb-Icons_new_Arranged_Names">
		<g id="Compassb-89_Compass">
			<path id="Compassb-Oval_278" fill="#383838" d="M16.001,1054.194c-7.732,0-14-6.269-14-14s6.268-14,14-14
				c7.733,0,14.001,6.269,14.001,14S23.734,1054.194,16.001,1054.194z M18.831,1043.021c-1.769,1.77-10.607,4.95-10.607,4.95
				s3.182-8.839,4.95-10.604c1.767-1.77,10.605-4.95,10.605-4.95S20.598,1041.255,18.831,1043.021L18.831,1043.021z
				 M16.001,1052.194c6.628,0,12.001-5.373,12.001-12s-5.373-12-12.001-12c-6.627,0-12,5.373-12,12S9.374,1052.194,16.001,1052.194z
				 M14.587,1041.608c0.781,0.78,2.047,0.78,2.828,0c0.782-0.78,0.782-2.048,0-2.827c-0.781-0.781-2.047-0.781-2.828,0
				C13.807,1039.561,13.807,1040.828,14.587,1041.608z"/>
		</g>
	</g>
	<title>51 Coud Arrow Down</title>
	<description>Created with Sketch (http://www.bohemiancoding.com/sketch)</description>
	<title>71 Crescent</title>
	<description>Created with Sketch (http://www.bohemiancoding.com/sketch)</description>
	<title>77 Crescent</title>
	<description>Created with Sketch (http://www.bohemiancoding.com/sketch)</description>
	<title>85 Fahrenheit</title>
	<description>Created with Sketch (http://www.bohemiancoding.com/sketch)</description>
	<title>70 Full Moon</title>
	<description>Created with Sketch (http://www.bohemiancoding.com/sketch)</description>
	<title>73 Gibbous Moon</title>
	<description>Created with Sketch (http://www.bohemiancoding.com/sketch)</description>
	<title>75 Gibbous Moon</title>
	<description>Created with Sketch (http://www.bohemiancoding.com/sketch)</description>
	<title>72 Half Moon</title>
	<description>Created with Sketch (http://www.bohemiancoding.com/sketch)</description>
	<title>76 Half Moon</title>
	<description>Created with Sketch (http://www.bohemiancoding.com/sketch)</description>
	<title>87 Lightning</title>
	<description>Created with Sketch (http://www.bohemiancoding.com/sketch)</description>
	<title>68 Moon Stars</title>
	<description>Created with Sketch (http://www.bohemiancoding.com/sketch)</description>
	<g id="Moon-Starsa-Icons_new_Arranged_Names">
		<g id="Moon-Starsa-68_Moon_Stars">
			<path id="Moon-Starsa-Oval_20_copy_4" fill="#383838" d="M19.491,1077.284l1.213,3.238l2.287,0.762l-2.287,0.763l-1.213,3.237
				l-1.216-3.237l-2.285-0.763l2.285-0.762L19.491,1077.284z M16.965,1084.045c-0.374,2.954-2.896,5.238-5.952,5.238
				c-3.314,0-6-2.687-6-6c0-2.766,1.87-5.093,4.414-5.787c0.505-0.139,1.037-0.213,1.586-0.213c0.247,0,0.49,0.016,0.729,0.045
				c-0.461,0.705-0.729,1.55-0.729,2.455c0,2.484,2.015,4.5,4.5,4.5C16.021,1084.284,16.51,1084.2,16.965,1084.045z
				 M15.489,1069.284l1.213,3.238l2.288,0.762l-2.288,0.763l-1.213,3.237l-1.214-3.237l-2.286-0.763l2.286-0.762L15.489,1069.284z
				 M25.357,1074.712l1.634,0.571l-1.634,0.571l-0.866,2.429l-0.867-2.429l-1.633-0.571l1.633-0.571l0.867-2.429L25.357,1074.712z"
				/>
		</g>
	</g>
	<title>69 Moon Stars</title>
	<description>Created with Sketch (http://www.bohemiancoding.com/sketch)</description>
	<g id="Moon-Starsb-Icons_new_Arranged_Names">
		<g id="Moon-Starsb-69_Moon_Stars">
			<path id="Moon-Starsb-Oval_20_copy_4" fill="#383838" d="M13.877,1121.167c-2.787-0.723-4.848-3.248-4.864-6.258
				c-1.196,0.691-2,1.983-2,3.465c0,2.209,1.791,4,4,4C12.136,1122.374,13.15,1121.911,13.877,1121.167z M19.491,1112.374
				l1.213,3.238l2.287,0.762l-2.287,0.763l-1.213,3.237l-1.216-3.237l-2.285-0.763l2.285-0.762L19.491,1112.374z M16.965,1119.135
				c-0.374,2.954-2.896,5.238-5.952,5.238c-3.314,0-6-2.686-6-6c0-2.765,1.87-5.093,4.414-5.787
				c0.505-0.139,1.037-0.213,1.586-0.213c0.247,0,0.49,0.016,0.729,0.045c-0.461,0.705-0.729,1.55-0.729,2.455
				c0,2.485,2.015,4.5,4.5,4.5C16.021,1119.374,16.51,1119.29,16.965,1119.135z M15.489,1104.374l1.213,3.238l2.288,0.762
				l-2.288,0.763l-1.213,3.237l-1.214-3.237l-2.286-0.763l2.286-0.762L15.489,1104.374z M25.357,1109.802l1.634,0.571l-1.634,0.571
				l-0.866,2.429l-0.867-2.429l-1.633-0.571l1.633-0.571l0.867-2.429L25.357,1109.802z"/>
		</g>
	</g>
	<title>74 Moon</title>
	<description>Created with Sketch (http://www.bohemiancoding.com/sketch)</description>
	<title>66 Moon</title>
	<description>Created with Sketch (http://www.bohemiancoding.com/sketch)</description>
	<title>67 Moon</title>
	<description>Created with Sketch (http://www.bohemiancoding.com/sketch)</description>
	<title>103 Moonrise</title>
	<description>Created with Sketch (http://www.bohemiancoding.com/sketch)</description>
	<title>104 Moonset</title>
	<description>Created with Sketch (http://www.bohemiancoding.com/sketch)</description>
	<title>100 Pressure Reading</title>
	<description>Created with Sketch (http://www.bohemiancoding.com/sketch)</description>
	<title>60 Rainbow</title>
	<description>Created with Sketch (http://www.bohemiancoding.com/sketch)</description>
	<title>63 Raindrop</title>
	<description>Created with Sketch (http://www.bohemiancoding.com/sketch)</description>
	<g id="Raindrop-Icons_new_Arranged_Names">
		<g id="Raindrop-63_Raindrop">
			<path id="Raindrop-Oval_207_copy_2" fill="#383838" d="M12.002,1151.674c0-2.525,4-8.211,4-8.211s4,5.686,4,8.211
				c0,2.093-1.792,3.789-4,3.789C13.793,1155.463,12.002,1153.767,12.002,1151.674z"/>
		</g>
	</g>
	<title>62 Raindrops</title>
	<description>Created with Sketch (http://www.bohemiancoding.com/sketch)</description>
	<g id="Raindrops-Icons_new_Arranged_Names">
		<g id="Raindrops-62_Raindrops">
			<path id="Raindrops-Oval_207_copy_3" fill="#383838" d="M18.001,1184.028c0-1.687,3.001-5.476,3.001-5.476s3,3.789,3,5.476
				c0,1.395-1.342,2.524-3,2.524C19.346,1186.553,18.001,1185.422,18.001,1184.028z M11.002,1192.028c0-1.687,3-5.476,3-5.476
				s3,3.789,3,5.476c0,1.395-1.342,2.524-3,2.524C12.344,1194.553,11.002,1193.422,11.002,1192.028z M8.002,1180.028
				c0-1.686,3-5.476,3-5.476s3,3.79,3,5.476c0,1.395-1.343,2.524-3,2.524C9.345,1182.553,8.002,1181.422,8.002,1180.028z"/>
		</g>
	</g>
	<title>88 Snowflake</title>
	<description>Created with Sketch (http://www.bohemiancoding.com/sketch)</description>
	<title>78 Stars</title>
	<description>Created with Sketch (http://www.bohemiancoding.com/sketch)</description>
	<title>54 Sun</title>
	<description>Created with Sketch (http://www.bohemiancoding.com/sketch)</description>
	<g id="Suna-Icons_new_Arranged_Names">
		<g id="Suna-54_Sun">
			<path id="Suna-Oval_13" fill="#383838" d="M22.375,1232.602l1.4,1.4c0.397,0.4,0.396,1.03,0.006,1.421
				c-0.393,0.395-1.025,0.388-1.42-0.007l-1.4-1.4c-0.4-0.399-0.398-1.029-0.006-1.422
				C21.348,1232.202,21.98,1232.208,22.375,1232.602z M20.961,1221.27l1.4-1.4c0.4-0.4,1.031-0.397,1.42-0.007
				c0.393,0.394,0.387,1.026-0.006,1.421l-1.4,1.4c-0.4,0.4-1.029,0.397-1.42,0.007C20.561,1222.297,20.566,1221.665,20.961,1221.27
				z M15.002,1237.637v-1.98c0-0.566,0.448-1.01,1-1.01c0.556,0,1,0.451,1,1.01v1.98c0,0.565-0.448,1.01-1,1.01
				C15.446,1238.646,15.002,1238.194,15.002,1237.637z M15.002,1219.63v-1.98c0-0.565,0.448-1.01,1-1.01c0.556,0,1,0.452,1,1.01
				v1.98c0,0.566-0.448,1.01-1,1.01C15.446,1220.64,15.002,1220.188,15.002,1219.63z M8.228,1234.002l1.401-1.4
				c0.399-0.399,1.03-0.396,1.42-0.008c0.393,0.395,0.388,1.027-0.007,1.422l-1.4,1.4c-0.4,0.4-1.031,0.396-1.421,0.007
				C7.828,1235.03,7.834,1234.396,8.228,1234.002z M24.014,1226.643h1.98c0.566,0,1.01,0.447,1.01,1c0,0.557-0.453,1-1.01,1h-1.98
				c-0.563,0-1.008-0.447-1.008-1C23.006,1227.086,23.458,1226.643,24.014,1226.643z M6.008,1226.643h1.981
				c0.566,0,1.009,0.447,1.009,1c0,0.557-0.452,1-1.009,1H6.008c-0.566,0-1.01-0.447-1.01-1
				C4.999,1227.086,5.451,1226.643,6.008,1226.643z M10.002,1227.639c0-3.312,2.686-6,6-6c3.314,0,6,2.688,6,6c0,3.314-2.688,6-6,6
				C12.689,1233.639,10.002,1230.954,10.002,1227.639z M9.643,1219.87l1.4,1.399c0.401,0.4,0.398,1.03,0.007,1.422
				c-0.393,0.393-1.027,0.388-1.42-0.008l-1.401-1.399c-0.4-0.4-0.397-1.031-0.006-1.421
				C8.615,1219.469,9.248,1219.475,9.643,1219.87z"/>
		</g>
	</g>
	<title>55 Sun</title>
	<description>Created with Sketch (http://www.bohemiancoding.com/sketch)</description>
	<g id="Sunb-Icons_new_Arranged_Names">
		<g id="Sunb-55_Sun">
			<path id="Sunb-Oval_13" fill="#383838" d="M16.001,1255.729c-0.556,0-1-0.45-1-1.009v-1.98c0-0.566,0.448-1.011,1-1.011
				c0.556,0,1,0.452,1,1.011v1.98C17.001,1255.286,16.553,1255.729,16.001,1255.729z M23.779,1270.514
				c-0.393,0.395-1.024,0.389-1.42-0.007l-1.399-1.399c-0.399-0.4-0.397-1.03-0.006-1.422c0.394-0.394,1.024-0.388,1.42,0.008
				l1.399,1.399C24.174,1269.493,24.172,1270.123,23.779,1270.514z M16.001,1266.729c2.208,0,3.999-1.791,3.999-4s-1.791-4-3.999-4
				c-2.209,0-4,1.791-4,4S13.792,1266.729,16.001,1266.729z M16.001,1273.736c-0.556,0-1-0.452-1-1.01v-1.98
				c0-0.566,0.448-1.01,1-1.01c0.556,0,1,0.451,1,1.01v1.98C17.001,1273.293,16.553,1273.736,16.001,1273.736z M20.954,1257.781
				c-0.396-0.395-0.39-1.026,0.006-1.421l1.399-1.4c0.4-0.4,1.031-0.397,1.42-0.007c0.396,0.393,0.39,1.025-0.006,1.421l-1.399,1.4
				C21.973,1258.175,21.344,1258.172,20.954,1257.781z M11.049,1267.686c0.393,0.394,0.388,1.026-0.007,1.422l-1.4,1.399
				c-0.4,0.4-1.031,0.397-1.421,0.007c-0.394-0.394-0.388-1.025,0.006-1.421l1.401-1.399
				C10.028,1267.292,10.659,1267.295,11.049,1267.686z M16.001,1268.729c-3.314,0-6-2.686-6-6c0-3.312,2.686-6,6-6
				c3.313,0,5.999,2.688,5.999,6C22,1266.044,19.314,1268.729,16.001,1268.729z M4.999,1262.733c0-0.558,0.452-1,1.009-1h1.981
				c0.566,0,1.009,0.446,1.009,1c0,0.556-0.452,1-1.009,1H6.008C5.442,1263.733,4.999,1263.285,4.999,1262.733z M23.004,1262.733
				c0-0.558,0.451-1,1.01-1h1.98c0.566,0,1.01,0.446,1.01,1c0,0.556-0.453,1-1.01,1h-1.98
				C23.448,1263.733,23.004,1263.285,23.004,1262.733z M8.222,1254.953c0.393-0.395,1.026-0.388,1.42,0.007l1.401,1.4
				c0.401,0.399,0.398,1.029,0.007,1.421c-0.393,0.393-1.027,0.388-1.421-0.007l-1.401-1.4
				C7.828,1255.974,7.831,1255.343,8.222,1254.953z"/>
		</g>
	</g>
	<title>64 Sunglasses</title>
	<description>Created with Sketch (http://www.bohemiancoding.com/sketch)</description>
	<title>65 Sunglasses</title>
	<description>Created with Sketch (http://www.bohemiancoding.com/sketch)</description>
	<title>56 Sunrise</title>
	<description>Created with Sketch (http://www.bohemiancoding.com/sketch)</description>
	<title>59 Sunset</title>
	<description>Created with Sketch (http://www.bohemiancoding.com/sketch)</description>
	<title>57 Sunset</title>
	<description>Created with Sketch (http://www.bohemiancoding.com/sketch)</description>
	<title>58 Sunset</title>
	<description>Created with Sketch (http://www.bohemiancoding.com/sketch)</description>
	<title>84 Thermometer Full</title>
	<description>Created with Sketch (http://www.bohemiancoding.com/sketch)</description>
	<g id="Thermometer-Full-Icons_new_Arranged_Names">
		<g id="Thermometer-Full-84_Thermometer_Full">
			<path id="Thermometer-Full-Oval_245" fill="#383838" d="M16.001,1311.823c2.21,0,4.001-1.791,4.001-4c0-1.48-0.805-2.772-2-3.465
				v-18.529c0-1.107-0.889-2.006-2.001-2.006c-1.105,0-2,0.896-2,2.006v18.529c-1.196,0.691-2,1.983-2,3.465
				C12.001,1310.032,13.792,1311.823,16.001,1311.823z M16.001,1310.823c-1.657,0-3-1.343-3-3c0-1.307,0.835-2.416,2-2.828v-19.168
				c0-0.564,0.448-1.004,1-1.004c0.556,0,1,0.448,1,1.003v19.168c1.165,0.413,2,1.523,2,2.83
				C19.002,1309.48,17.658,1310.824,16.001,1310.823L16.001,1310.823z M16.001,1313.823c-3.314,0-6-2.687-6-6
				c0-1.776,0.773-3.373,2-4.473v-17.521c0-2.22,1.791-4.007,4-4.007c2.206,0,4.001,1.794,4.001,4.006v17.521
				c1.227,1.099,2,2.694,2,4.473C22.002,1311.137,19.316,1313.823,16.001,1313.823L16.001,1313.823z"/>
		</g>
	</g>
	<title>82 Thermometer Half Full</title>
	<description>Created with Sketch (http://www.bohemiancoding.com/sketch)</description>
	<g id="Thermometer-Half-Full-Icons_new_Arranged_Names">
		<g id="Thermometer-Half-Full-82_Thermometer_Half_Full">
			<path id="Thermometer-Half-Full-Oval_245" fill="#383838" d="M16.001,1353.913c2.21,0,4.001-1.791,4.001-4
				c0-1.48-0.805-2.772-2-3.465v-18.529c0-1.107-0.889-2.006-2.001-2.006c-1.105,0-2,0.896-2,2.006v18.529
				c-1.196,0.691-2,1.983-2,3.465C12.001,1352.122,13.792,1353.913,16.001,1353.913z M16.001,1352.913c-1.657,0-3-1.343-3-3
				c0-1.312,0.841-2.426,2.014-2.834c-0.009-0.056-0.014-0.11-0.014-0.168v-9.996c0-0.545,0.448-1.002,1-1.002
				c0.556,0,1,0.449,1,1.002v9.996c0,0.058-0.006,0.113-0.014,0.168c1.172,0.407,2.014,1.521,2.014,2.834
				C19.002,1351.57,17.658,1352.913,16.001,1352.913z M16.001,1355.913c-3.314,0-6-2.687-6-6c0-1.776,0.773-3.373,2-4.472v-17.521
				c0-2.22,1.791-4.007,4-4.007c2.206,0,4.001,1.794,4.001,4.006v17.522c1.227,1.098,2,2.693,2,4.472
				C22.002,1353.227,19.316,1355.913,16.001,1355.913L16.001,1355.913z"/>
		</g>
	</g>
	<title>80 Thermometer Low</title>
	<description>Created with Sketch (http://www.bohemiancoding.com/sketch)</description>
	<g id="Thermometer-Low-Icons_new_Arranged_Names">
		<g id="Thermometer-Low-80_Thermometer_Low">
			<path id="Thermometer-Low-Oval_245" fill="#383838" d="M16.001,1398.002c-3.314,0-6-2.686-6-6c0-1.776,0.773-3.373,2-4.472
				v-17.521c0-2.22,1.791-4.007,4-4.007c2.206,0,4.001,1.794,4.001,4.006v17.522c1.227,1.098,2,2.693,2,4.472
				C22.002,1395.316,19.316,1398.002,16.001,1398.002L16.001,1398.002z M16.001,1396.002c2.21,0,4.001-1.791,4.001-4
				c0-1.48-0.805-2.771-2-3.465v-18.529c0-1.107-0.889-2.006-2.001-2.006c-1.105,0-2,0.896-2,2.006v18.529
				c-1.196,0.691-2,1.984-2,3.465C12.001,1394.211,13.792,1396.002,16.001,1396.002z M16.001,1395.002c-1.657,0-3-1.343-3-3
				c0-1.656,1.343-3,3-3c1.657,0,3.001,1.344,3.001,3C19.002,1393.659,17.658,1395.002,16.001,1395.002z"/>
		</g>
	</g>
	<title>81 Thermometer Quarter Full</title>
	<description>Created with Sketch (http://www.bohemiancoding.com/sketch)</description>
	<g id="Thermometer-Quarter-Full-Icons_new_Arranged_Names">
		<g id="Thermometer-Quarter-Full-81_Thermometer_Quarter_Full">
			<path id="Thermometer-Quarter-Full-Oval_245" fill="#383838" d="M16.001,1435.092c2.21,0,4.001-1.791,4.001-4
				c0-1.479-0.805-2.771-2-3.465v-18.529c0-1.106-0.889-2.006-2.001-2.006c-1.105,0-2,0.897-2,2.006v18.529
				c-1.196,0.692-2,1.984-2,3.465C12.001,1433.301,13.792,1435.092,16.001,1435.092z M16.001,1434.092c-1.657,0-3-1.343-3-3
				c0-1.311,0.841-2.425,2.012-2.834c-0.008-0.051-0.012-0.103-0.012-0.156v-4.019c0-0.54,0.448-0.991,1-0.991
				c0.556,0,1,0.444,1,0.991v4.019c0,0.055-0.004,0.105-0.014,0.156c1.172,0.408,2.014,1.523,2.014,2.834
				C19.002,1432.749,17.658,1434.092,16.001,1434.092z M16.001,1437.092c-3.314,0-6-2.686-6-6c0-1.775,0.773-3.373,2-4.472v-17.521
				c0-2.22,1.791-4.007,4-4.007c2.206,0,4.001,1.794,4.001,4.006v17.522c1.227,1.098,2,2.694,2,4.472
				C22.002,1434.406,19.316,1437.092,16.001,1437.092L16.001,1437.092z"/>
		</g>
	</g>
	<title>83 Thermometer Three Quarter Full</title>
	<description>Created with Sketch (http://www.bohemiancoding.com/sketch)</description>
	<g id="Thermometer-Three-Quarter-Full-Icons_new_Arranged_Names">
		<g id="Thermometer-Three-Quarter-Full-83_Thermometer_Three_Quarter_Full">
			<path id="Thermometer-Three-Quarter-Full-Oval_245" fill="#383838" d="M16.001,1472.182c2.21,0,4.001-1.791,4.001-4
				c0-1.479-0.805-2.771-2-3.465v-18.529c0-1.106-0.889-2.006-2.001-2.006c-1.105,0-2,0.897-2,2.006v18.529
				c-1.196,0.692-2,1.984-2,3.465C12.001,1470.391,13.792,1472.182,16.001,1472.182z M16.001,1471.182c-1.657,0-3-1.343-3-3
				c0-1.306,0.835-2.416,2-2.828v-15.179c0-0.548,0.448-0.993,1-0.993c0.556,0,1,0.445,1,0.994v15.178c1.165,0.412,2,1.523,2,2.829
				C19.002,1469.84,17.658,1471.183,16.001,1471.182L16.001,1471.182z M16.001,1474.182c-3.314,0-6-2.686-6-6
				c0-1.775,0.773-3.373,2-4.472v-17.521c0-2.221,1.791-4.008,4-4.008c2.206,0,4.001,1.794,4.001,4.006v17.522
				c1.227,1.098,2,2.694,2,4.472C22.002,1471.496,19.316,1474.182,16.001,1474.182L16.001,1474.182z"/>
		</g>
	</g>
	<title>79 Thermometer</title>
	<description>Created with Sketch (http://www.bohemiancoding.com/sketch)</description>
	<g id="Thermometer-Icons_new_Arranged_Names">
		<g id="Thermometer-79_Thermometer">
			<path id="Thermometer-Oval_245" fill="#383838" d="M16.001,1509.271c2.21,0,4.001-1.791,4.001-4c0-1.48-0.805-2.773-2-3.466
				v-18.528c0-1.107-0.889-2.006-2.001-2.006c-1.105,0-2,0.896-2,2.006v18.528c-1.196,0.691-2,1.984-2,3.466
				C12.001,1507.48,13.792,1509.271,16.001,1509.271z M16.001,1511.271c-3.314,0-6-2.687-6-6c0-1.777,0.773-3.373,2-4.474v-17.521
				c0-2.221,1.791-4.008,4-4.008c2.206,0,4.001,1.795,4.001,4.007v17.521c1.227,1.098,2,2.695,2,4.473
				C22.002,1508.586,19.316,1511.271,16.001,1511.271L16.001,1511.271z"/>
		</g>
	</g>
	<title>102 Tornado</title>
	<description>Created with Sketch (http://www.bohemiancoding.com/sketch)</description>
	<g id="Tornado-Icons_new_Arranged_Names">
		<g id="Tornado-102_Tornado">
			<path id="Tornado-Triangle_30_copy" fill="#383838" d="M3.536,1524.459c1.042-1.711,5.596-3.098,12.499-3.098
				c6.902,0,11.369,1.646,12.5,3.098c1.561,2.002-0.881,6.734-8.334,11.354c-6.354,3.939-11.039,7.771-7.292,9.291
				c8.926,3.621,4.167,8.259,4.167,8.259s0-3.099-3.125-4.129c-5.282-1.746-7.292-3.099-9.375-5.162
				c-1.576-1.562-3.272-6.49,2.083-11.354C9.326,1530.295,1.538,1527.74,3.536,1524.459z M27.018,1525.395c0-1.657-4.926-3-11-3
				c-6.075,0-11,1.343-11,3c0,1.656,4.925,3,11,3C22.092,1528.395,27.018,1527.051,27.018,1525.395z"/>
		</g>
	</g>
	<title>61 Umbrella</title>
	<description>Created with Sketch (http://www.bohemiancoding.com/sketch)</description>
	<title>101 Warning</title>
	<description>Created with Sketch (http://www.bohemiancoding.com/sketch)</description>
	<title>98 Wind Wheel</title>
	<description>Created with Sketch (http://www.bohemiancoding.com/sketch)</description>
	<g id="Wind-Wheela-Icons_new_Arranged_Names">
		<g id="Wind-Wheela-98_Wind_Wheel">
			<path id="Wind-Wheela-Triangle_25" fill="#383838" d="M18.971,1577.01c2.555,1.816,8.699,6.281,8.303,6.967
				c-0.395,0.688-7.303-2.389-10.164-3.698l0.893,15.174c0,0-0.5,1-2,1s-2-1-2-1l0.893-15.174
				c-2.862,1.311-9.771,4.387-10.166,3.698c-0.397-0.686,5.75-5.149,8.305-6.967c-0.021,0.146-0.032,0.291-0.032,0.441
				c0,1.656,1.343,3,3,3c1.658,0,3-1.344,3-3C19.001,1577.301,18.99,1577.154,18.971,1577.01z M14.122,1575.113
				c0.295-3.129,1.088-10.662,1.88-10.662s1.585,7.533,1.88,10.662c-0.516-0.414-1.168-0.662-1.88-0.662
				S14.637,1574.699,14.122,1575.113z M16.002,1579.451c-1.105,0-2-0.896-2-2c0-1.105,0.895-2,2-2c1.105,0,2,0.895,2,2
				C18.002,1578.556,17.107,1579.451,16.002,1579.451z"/>
		</g>
	</g>
	<title>99 Wind Wheel</title>
	<description>Created with Sketch (http://www.bohemiancoding.com/sketch)</description>
	<g id="Cloud-Rain-Suna-Icons_new_Arranged_Names_1_">
		<g id="Cloud-Rain-Suna-31_Cloud_Rain_Sun_1_">
		</g>
	</g>
	<g id="Cloud-Snowa-33_Cloud_Snow_1_">
		<path id="Cloud-Snowa-Rectangle_1_copy_2_1_" fill="#383838" d="M26.473,325.248c-0.248-2.25-2.156-4-4.473-4
			c-1.057,0-2.029,0.365-2.797,0.977c-0.87-2.88-3.542-4.977-6.704-4.977c-3.866,0-7,3.135-7,7c0,0.377,0.03,0.745,0.086,1.104
			c-1.769,0.414-3.086,2.004-3.086,3.896c0,2.209,1.794,4,3.997,4h20.006c2.209,0,3.998-1.795,3.998-4c0-2.209-1.795-4-3.998-4
			H26.473z M0.5,329.248c0-2.217,1.208-4.157,3.002-5.196c0.105-4.88,4.093-8.804,8.998-8.804c3.233,0,6.068,1.706,7.655,4.267
			c0.586-0.174,1.204-0.267,1.846-0.267c2.785,0,5.16,1.752,6.086,4.213c2.543,0.694,4.414,3.022,4.414,5.787c0,3.309-2.687,6-6,6
			h-20C3.187,335.248,0.5,332.563,0.5,329.248z"/>
		<path fill="#383838" d="M8.5,340.292c-0.556,0-1-0.451-1-1.009v-1.981c0-0.566,0.448-1.01,1-1.01c0.556,0,1,0.452,1,1.01v1.981
			C9.5,339.85,9.052,340.292,8.5,340.292z"/>
		<path fill="#383838" d="M16.5,340.292c-0.556,0-1-0.451-1-1.009v-1.981c0-0.566,0.448-1.01,1-1.01c0.557,0,1,0.452,1,1.01v1.981
			C17.5,339.85,17.052,340.292,16.5,340.292z"/>
		<path fill="#383838" d="M24.5,340.292c-0.557,0-1-0.451-1-1.009v-1.981c0-0.566,0.447-1.01,1-1.01c0.557,0,1,0.452,1,1.01v1.981
			C25.5,339.85,25.051,340.292,24.5,340.292z"/>
		<path fill="#383838" d="M12.5,342.292c-0.556,0-1-0.451-1-1.009v-1.981c0-0.566,0.448-1.01,1-1.01c0.556,0,1,0.452,1,1.01v1.981
			C13.5,341.85,13.052,342.292,12.5,342.292z"/>
		<path fill="#383838" d="M20.5,342.292c-0.557,0-1-0.451-1-1.009v-1.981c0-0.566,0.447-1.01,1-1.01c0.557,0,1,0.452,1,1.01v1.981
			C21.5,341.85,21.051,342.292,20.5,342.292z"/>
	</g>
</g>
</svg>
